<?xml version="1.0" encoding="UTF-8"?>
<svg xmlns="http://www.w3.org/2000/svg" version="1.1" viewBox="0 0 1585.92 1080">
  <!-- Generator: Adobe Illustrator 30.5.1, SVG Export Plug-In . SVG Version: 2.1.4 Build 3)  -->
  <defs>
    <style>
      .st0 {
        fill: #fff;
      }

      .st1 {
        fill: #666;
      }

      .st2 {
        fill: #006294;
      }

      .st3 {
        fill: #999;
      }
    </style>
  </defs>
  <g id="Layer_1">
    <g>
      <rect class="st3" x=".5" y=".5" width="1584.92" height="1079"/>
      <path d="M1584.92,1v1078H1V1h1583.92M1585.92,0H0v1080h1585.92V0h0Z"/>
    </g>
    <g>
      <path class="st2" d="M71.26,123.06c-26.69,0-48.4-22.73-48.4-50.67s21.71-50.67,48.4-50.67,48.4,22.73,48.4,50.67-21.71,50.67-48.4,50.67Z"/>
      <path d="M71.26,22.23c26.41,0,47.9,22.5,47.9,50.17s-21.49,50.17-47.9,50.17-47.9-22.5-47.9-50.17,21.49-50.17,47.9-50.17M71.26,21.23c-27.01,0-48.9,22.91-48.9,51.17s21.89,51.17,48.9,51.17,48.9-22.91,48.9-51.17-21.89-51.17-48.9-51.17h0Z"/>
    </g>
    <g>
      <path class="st2" d="M202.71,123.06c-26.69,0-48.4-22.73-48.4-50.67s21.71-50.67,48.4-50.67,48.4,22.73,48.4,50.67-21.71,50.67-48.4,50.67Z"/>
      <path d="M202.71,22.23c26.41,0,47.9,22.5,47.9,50.17s-21.49,50.17-47.9,50.17-47.9-22.5-47.9-50.17,21.49-50.17,47.9-50.17M202.71,21.23c-27.01,0-48.9,22.91-48.9,51.17s21.89,51.17,48.9,51.17,48.9-22.91,48.9-51.17-21.89-51.17-48.9-51.17h0Z"/>
    </g>
    <g>
      <path class="st2" d="M334.16,123.06c-26.69,0-48.4-22.73-48.4-50.67s21.71-50.67,48.4-50.67,48.4,22.73,48.4,50.67-21.71,50.67-48.4,50.67Z"/>
      <path d="M334.16,22.23c26.41,0,47.9,22.5,47.9,50.17s-21.49,50.17-47.9,50.17-47.9-22.5-47.9-50.17,21.49-50.17,47.9-50.17M334.16,21.23c-27.01,0-48.9,22.91-48.9,51.17s21.89,51.17,48.9,51.17,48.9-22.91,48.9-51.17-21.89-51.17-48.9-51.17h0Z"/>
    </g>
    <g>
      <path class="st2" d="M465.61,123.06c-26.69,0-48.4-22.73-48.4-50.67s21.71-50.67,48.4-50.67,48.4,22.73,48.4,50.67-21.71,50.67-48.4,50.67Z"/>
      <path d="M465.61,22.23c26.41,0,47.9,22.5,47.9,50.17s-21.49,50.17-47.9,50.17-47.9-22.5-47.9-50.17,21.49-50.17,47.9-50.17M465.61,21.23c-27.01,0-48.9,22.91-48.9,51.17s21.89,51.17,48.9,51.17,48.9-22.91,48.9-51.17-21.89-51.17-48.9-51.17h0Z"/>
    </g>
    <g>
      <path class="st2" d="M597.06,123.06c-26.69,0-48.4-22.73-48.4-50.67s21.71-50.67,48.4-50.67,48.4,22.73,48.4,50.67-21.71,50.67-48.4,50.67Z"/>
      <path d="M597.06,22.23c26.41,0,47.9,22.5,47.9,50.17s-21.49,50.17-47.9,50.17-47.9-22.5-47.9-50.17,21.49-50.17,47.9-50.17M597.06,21.23c-27.01,0-48.9,22.91-48.9,51.17s21.89,51.17,48.9,51.17,48.9-22.91,48.9-51.17-21.89-51.17-48.9-51.17h0Z"/>
    </g>
    <g>
      <path class="st1" d="M728.51,123.06c-26.69,0-48.4-22.73-48.4-50.67s21.71-50.67,48.4-50.67,48.4,22.73,48.4,50.67-21.71,50.67-48.4,50.67Z"/>
      <path d="M728.51,22.23c26.41,0,47.9,22.5,47.9,50.17s-21.49,50.17-47.9,50.17-47.9-22.5-47.9-50.17,21.49-50.17,47.9-50.17M728.51,21.23c-27.01,0-48.9,22.91-48.9,51.17s21.89,51.17,48.9,51.17,48.9-22.91,48.9-51.17-21.89-51.17-48.9-51.17h0Z"/>
    </g>
    <g>
      <path class="st1" d="M859.97,123.06c-26.69,0-48.4-22.73-48.4-50.67s21.71-50.67,48.4-50.67,48.4,22.73,48.4,50.67-21.71,50.67-48.4,50.67Z"/>
      <path d="M859.97,22.23c26.41,0,47.9,22.5,47.9,50.17s-21.49,50.17-47.9,50.17-47.9-22.5-47.9-50.17,21.49-50.17,47.9-50.17M859.97,21.23c-27.01,0-48.9,22.91-48.9,51.17s21.89,51.17,48.9,51.17,48.9-22.91,48.9-51.17-21.89-51.17-48.9-51.17h0Z"/>
    </g>
    <g>
      <path class="st1" d="M991.42,123.06c-26.69,0-48.4-22.73-48.4-50.67s21.71-50.67,48.4-50.67,48.4,22.73,48.4,50.67-21.71,50.67-48.4,50.67Z"/>
      <path d="M991.42,22.23c26.41,0,47.9,22.5,47.9,50.17s-21.49,50.17-47.9,50.17-47.9-22.5-47.9-50.17,21.49-50.17,47.9-50.17M991.42,21.23c-27.01,0-48.9,22.91-48.9,51.17s21.89,51.17,48.9,51.17,48.9-22.91,48.9-51.17-21.89-51.17-48.9-51.17h0Z"/>
    </g>
    <g>
      <path class="st1" d="M1122.87,123.06c-26.69,0-48.4-22.73-48.4-50.67s21.71-50.67,48.4-50.67,48.4,22.73,48.4,50.67-21.71,50.67-48.4,50.67Z"/>
      <path d="M1122.87,22.23c26.41,0,47.9,22.5,47.9,50.17s-21.49,50.17-47.9,50.17-47.9-22.5-47.9-50.17,21.49-50.17,47.9-50.17M1122.87,21.23c-27.01,0-48.9,22.91-48.9,51.17s21.89,51.17,48.9,51.17,48.9-22.91,48.9-51.17-21.89-51.17-48.9-51.17h0Z"/>
    </g>
    <g>
      <path class="st1" d="M1254.32,123.06c-26.69,0-48.4-22.73-48.4-50.67s21.71-50.67,48.4-50.67,48.4,22.73,48.4,50.67-21.71,50.67-48.4,50.67Z"/>
      <path d="M1254.32,22.23c26.41,0,47.9,22.5,47.9,50.17s-21.49,50.17-47.9,50.17-47.9-22.5-47.9-50.17,21.49-50.17,47.9-50.17M1254.32,21.23c-27.01,0-48.9,22.91-48.9,51.17s21.89,51.17,48.9,51.17,48.9-22.91,48.9-51.17-21.89-51.17-48.9-51.17h0Z"/>
    </g>
    <g>
      <path class="st1" d="M1385.77,123.06c-26.69,0-48.4-22.73-48.4-50.67s21.71-50.67,48.4-50.67,48.4,22.73,48.4,50.67-21.71,50.67-48.4,50.67Z"/>
      <path d="M1385.77,22.23c26.41,0,47.9,22.5,47.9,50.17s-21.49,50.17-47.9,50.17-47.9-22.5-47.9-50.17,21.49-50.17,47.9-50.17M1385.77,21.23c-27.01,0-48.9,22.91-48.9,51.17s21.89,51.17,48.9,51.17,48.9-22.91,48.9-51.17-21.89-51.17-48.9-51.17h0Z"/>
    </g>
    <g>
      <path class="st1" d="M1517.22,123.06c-26.69,0-48.4-22.73-48.4-50.67s21.71-50.67,48.4-50.67,48.4,22.73,48.4,50.67-21.71,50.67-48.4,50.67Z"/>
      <path d="M1517.22,22.23c26.41,0,47.9,22.5,47.9,50.17s-21.49,50.17-47.9,50.17-47.9-22.5-47.9-50.17,21.49-50.17,47.9-50.17M1517.22,21.23c-27.01,0-48.9,22.91-48.9,51.17s21.89,51.17,48.9,51.17,48.9-22.91,48.9-51.17-21.89-51.17-48.9-51.17h0Z"/>
    </g>
    <g>
      <path class="st1" d="M71.26,255.96c-26.69,0-48.4-22.73-48.4-50.67s21.71-50.67,48.4-50.67,48.4,22.73,48.4,50.67-21.71,50.67-48.4,50.67Z"/>
      <path d="M71.26,155.13c26.41,0,47.9,22.5,47.9,50.17s-21.49,50.17-47.9,50.17-47.9-22.5-47.9-50.17,21.49-50.17,47.9-50.17M71.26,154.13c-27.01,0-48.9,22.91-48.9,51.17s21.89,51.17,48.9,51.17,48.9-22.91,48.9-51.17-21.89-51.17-48.9-51.17h0Z"/>
    </g>
    <g>
      <path class="st2" d="M71.26,388.85c-26.69,0-48.4-22.73-48.4-50.67s21.71-50.67,48.4-50.67,48.4,22.73,48.4,50.67-21.71,50.67-48.4,50.67Z"/>
      <path d="M71.26,288.02c26.41,0,47.9,22.5,47.9,50.17s-21.49,50.17-47.9,50.17-47.9-22.5-47.9-50.17,21.49-50.17,47.9-50.17M71.26,287.02c-27.01,0-48.9,22.91-48.9,51.17s21.89,51.17,48.9,51.17,48.9-22.91,48.9-51.17-21.89-51.17-48.9-51.17h0Z"/>
    </g>
    <g>
      <path class="st1" d="M71.26,521.75c-26.69,0-48.4-22.73-48.4-50.67s21.71-50.67,48.4-50.67,48.4,22.73,48.4,50.67-21.71,50.67-48.4,50.67Z"/>
      <path d="M71.26,420.92c26.41,0,47.9,22.5,47.9,50.17s-21.49,50.17-47.9,50.17-47.9-22.5-47.9-50.17,21.49-50.17,47.9-50.17M71.26,419.92c-27.01,0-48.9,22.91-48.9,51.17s21.89,51.17,48.9,51.17,48.9-22.91,48.9-51.17-21.89-51.17-48.9-51.17h0Z"/>
    </g>
    <g>
      <path class="st2" d="M71.26,654.65c-26.69,0-48.4-22.73-48.4-50.67s21.71-50.67,48.4-50.67,48.4,22.73,48.4,50.67-21.71,50.67-48.4,50.67Z"/>
      <path d="M71.26,553.82c26.41,0,47.9,22.5,47.9,50.17s-21.49,50.17-47.9,50.17-47.9-22.5-47.9-50.17,21.49-50.17,47.9-50.17M71.26,552.82c-27.01,0-48.9,22.91-48.9,51.17s21.89,51.17,48.9,51.17,48.9-22.91,48.9-51.17-21.89-51.17-48.9-51.17h0Z"/>
    </g>
    <g>
      <path class="st2" d="M71.26,787.54c-26.69,0-48.4-22.73-48.4-50.67s21.71-50.67,48.4-50.67,48.4,22.73,48.4,50.67-21.71,50.67-48.4,50.67Z"/>
      <path d="M71.26,686.71c26.41,0,47.9,22.5,47.9,50.17s-21.49,50.17-47.9,50.17-47.9-22.5-47.9-50.17,21.49-50.17,47.9-50.17M71.26,685.71c-27.01,0-48.9,22.91-48.9,51.17s21.89,51.17,48.9,51.17,48.9-22.91,48.9-51.17-21.89-51.17-48.9-51.17h0Z"/>
    </g>
    <g>
      <path class="st2" d="M71.26,920.44c-26.69,0-48.4-22.73-48.4-50.67s21.71-50.67,48.4-50.67,48.4,22.73,48.4,50.67-21.71,50.67-48.4,50.67Z"/>
      <path d="M71.26,819.61c26.41,0,47.9,22.5,47.9,50.17s-21.49,50.17-47.9,50.17-47.9-22.5-47.9-50.17,21.49-50.17,47.9-50.17M71.26,818.61c-27.01,0-48.9,22.91-48.9,51.17s21.89,51.17,48.9,51.17,48.9-22.91,48.9-51.17-21.89-51.17-48.9-51.17h0Z"/>
    </g>
    <g>
      <path class="st1" d="M71.26,1053.34c-26.69,0-48.4-22.73-48.4-50.67s21.71-50.67,48.4-50.67,48.4,22.73,48.4,50.67-21.71,50.67-48.4,50.67Z"/>
      <path d="M71.26,952.51c26.41,0,47.9,22.5,47.9,50.17s-21.49,50.17-47.9,50.17-47.9-22.5-47.9-50.17,21.49-50.17,47.9-50.17M71.26,951.51c-27.01,0-48.9,22.91-48.9,51.17s21.89,51.17,48.9,51.17,48.9-22.91,48.9-51.17-21.89-51.17-48.9-51.17h0Z"/>
    </g>
    <g>
      <path class="st1" d="M202.71,255.96c-26.69,0-48.4-22.73-48.4-50.67s21.71-50.67,48.4-50.67,48.4,22.73,48.4,50.67-21.71,50.67-48.4,50.67Z"/>
      <path d="M202.71,155.13c26.41,0,47.9,22.5,47.9,50.17s-21.49,50.17-47.9,50.17-47.9-22.5-47.9-50.17,21.49-50.17,47.9-50.17M202.71,154.13c-27.01,0-48.9,22.91-48.9,51.17s21.89,51.17,48.9,51.17,48.9-22.91,48.9-51.17-21.89-51.17-48.9-51.17h0Z"/>
    </g>
    <g>
      <path class="st2" d="M202.71,388.85c-26.69,0-48.4-22.73-48.4-50.67s21.71-50.67,48.4-50.67,48.4,22.73,48.4,50.67-21.71,50.67-48.4,50.67Z"/>
      <path d="M202.71,288.02c26.41,0,47.9,22.5,47.9,50.17s-21.49,50.17-47.9,50.17-47.9-22.5-47.9-50.17,21.49-50.17,47.9-50.17M202.71,287.02c-27.01,0-48.9,22.91-48.9,51.17s21.89,51.17,48.9,51.17,48.9-22.91,48.9-51.17-21.89-51.17-48.9-51.17h0Z"/>
    </g>
    <g>
      <path class="st1" d="M202.71,521.75c-26.69,0-48.4-22.73-48.4-50.67s21.71-50.67,48.4-50.67,48.4,22.73,48.4,50.67-21.71,50.67-48.4,50.67Z"/>
      <path d="M202.71,420.92c26.41,0,47.9,22.5,47.9,50.17s-21.49,50.17-47.9,50.17-47.9-22.5-47.9-50.17,21.49-50.17,47.9-50.17M202.71,419.92c-27.01,0-48.9,22.91-48.9,51.17s21.89,51.17,48.9,51.17,48.9-22.91,48.9-51.17-21.89-51.17-48.9-51.17h0Z"/>
    </g>
    <g>
      <path class="st2" d="M202.71,654.65c-26.69,0-48.4-22.73-48.4-50.67s21.71-50.67,48.4-50.67,48.4,22.73,48.4,50.67-21.71,50.67-48.4,50.67Z"/>
      <path d="M202.71,553.82c26.41,0,47.9,22.5,47.9,50.17s-21.49,50.17-47.9,50.17-47.9-22.5-47.9-50.17,21.49-50.17,47.9-50.17M202.71,552.82c-27.01,0-48.9,22.91-48.9,51.17s21.89,51.17,48.9,51.17,48.9-22.91,48.9-51.17-21.89-51.17-48.9-51.17h0Z"/>
    </g>
    <g>
      <path class="st2" d="M202.71,787.54c-26.69,0-48.4-22.73-48.4-50.67s21.71-50.67,48.4-50.67,48.4,22.73,48.4,50.67-21.71,50.67-48.4,50.67Z"/>
      <path d="M202.71,686.71c26.41,0,47.9,22.5,47.9,50.17s-21.49,50.17-47.9,50.17-47.9-22.5-47.9-50.17,21.49-50.17,47.9-50.17M202.71,685.71c-27.01,0-48.9,22.91-48.9,51.17s21.89,51.17,48.9,51.17,48.9-22.91,48.9-51.17-21.89-51.17-48.9-51.17h0Z"/>
    </g>
    <g>
      <path class="st2" d="M202.71,920.44c-26.69,0-48.4-22.73-48.4-50.67s21.71-50.67,48.4-50.67,48.4,22.73,48.4,50.67-21.71,50.67-48.4,50.67Z"/>
      <path d="M202.71,819.61c26.41,0,47.9,22.5,47.9,50.17s-21.49,50.17-47.9,50.17-47.9-22.5-47.9-50.17,21.49-50.17,47.9-50.17M202.71,818.61c-27.01,0-48.9,22.91-48.9,51.17s21.89,51.17,48.9,51.17,48.9-22.91,48.9-51.17-21.89-51.17-48.9-51.17h0Z"/>
    </g>
    <g>
      <path class="st1" d="M202.71,1053.34c-26.69,0-48.4-22.73-48.4-50.67s21.71-50.67,48.4-50.67,48.4,22.73,48.4,50.67-21.71,50.67-48.4,50.67Z"/>
      <path d="M202.71,952.51c26.41,0,47.9,22.5,47.9,50.17s-21.49,50.17-47.9,50.17-47.9-22.5-47.9-50.17,21.49-50.17,47.9-50.17M202.71,951.51c-27.01,0-48.9,22.91-48.9,51.17s21.89,51.17,48.9,51.17,48.9-22.91,48.9-51.17-21.89-51.17-48.9-51.17h0Z"/>
    </g>
    <g>
      <path class="st1" d="M334.16,255.96c-26.69,0-48.4-22.73-48.4-50.67s21.71-50.67,48.4-50.67,48.4,22.73,48.4,50.67-21.71,50.67-48.4,50.67Z"/>
      <path d="M334.16,155.13c26.41,0,47.9,22.5,47.9,50.17s-21.49,50.17-47.9,50.17-47.9-22.5-47.9-50.17,21.49-50.17,47.9-50.17M334.16,154.13c-27.01,0-48.9,22.91-48.9,51.17s21.89,51.17,48.9,51.17,48.9-22.91,48.9-51.17-21.89-51.17-48.9-51.17h0Z"/>
    </g>
    <g>
      <path class="st2" d="M334.16,388.85c-26.69,0-48.4-22.73-48.4-50.67s21.71-50.67,48.4-50.67,48.4,22.73,48.4,50.67-21.71,50.67-48.4,50.67Z"/>
      <path d="M334.16,288.02c26.41,0,47.9,22.5,47.9,50.17s-21.49,50.17-47.9,50.17-47.9-22.5-47.9-50.17,21.49-50.17,47.9-50.17M334.16,287.02c-27.01,0-48.9,22.91-48.9,51.17s21.89,51.17,48.9,51.17,48.9-22.91,48.9-51.17-21.89-51.17-48.9-51.17h0Z"/>
    </g>
    <g>
      <path class="st1" d="M334.16,521.75c-26.69,0-48.4-22.73-48.4-50.67s21.71-50.67,48.4-50.67,48.4,22.73,48.4,50.67-21.71,50.67-48.4,50.67Z"/>
      <path d="M334.16,420.92c26.41,0,47.9,22.5,47.9,50.17s-21.49,50.17-47.9,50.17-47.9-22.5-47.9-50.17,21.49-50.17,47.9-50.17M334.16,419.92c-27.01,0-48.9,22.91-48.9,51.17s21.89,51.17,48.9,51.17,48.9-22.91,48.9-51.17-21.89-51.17-48.9-51.17h0Z"/>
    </g>
    <g>
      <path class="st2" d="M334.16,654.65c-26.69,0-48.4-22.73-48.4-50.67s21.71-50.67,48.4-50.67,48.4,22.73,48.4,50.67-21.71,50.67-48.4,50.67Z"/>
      <path d="M334.16,553.82c26.41,0,47.9,22.5,47.9,50.17s-21.49,50.17-47.9,50.17-47.9-22.5-47.9-50.17,21.49-50.17,47.9-50.17M334.16,552.82c-27.01,0-48.9,22.91-48.9,51.17s21.89,51.17,48.9,51.17,48.9-22.91,48.9-51.17-21.89-51.17-48.9-51.17h0Z"/>
    </g>
    <g>
      <path class="st2" d="M334.16,787.54c-26.69,0-48.4-22.73-48.4-50.67s21.71-50.67,48.4-50.67,48.4,22.73,48.4,50.67-21.71,50.67-48.4,50.67Z"/>
      <path d="M334.16,686.71c26.41,0,47.9,22.5,47.9,50.17s-21.49,50.17-47.9,50.17-47.9-22.5-47.9-50.17,21.49-50.17,47.9-50.17M334.16,685.71c-27.01,0-48.9,22.91-48.9,51.17s21.89,51.17,48.9,51.17,48.9-22.91,48.9-51.17-21.89-51.17-48.9-51.17h0Z"/>
    </g>
    <g>
      <path class="st2" d="M334.16,920.44c-26.69,0-48.4-22.73-48.4-50.67s21.71-50.67,48.4-50.67,48.4,22.73,48.4,50.67-21.71,50.67-48.4,50.67Z"/>
      <path d="M334.16,819.61c26.41,0,47.9,22.5,47.9,50.17s-21.49,50.17-47.9,50.17-47.9-22.5-47.9-50.17,21.49-50.17,47.9-50.17M334.16,818.61c-27.01,0-48.9,22.91-48.9,51.17s21.89,51.17,48.9,51.17,48.9-22.91,48.9-51.17-21.89-51.17-48.9-51.17h0Z"/>
    </g>
    <g>
      <path class="st1" d="M334.16,1053.34c-26.69,0-48.4-22.73-48.4-50.67s21.71-50.67,48.4-50.67,48.4,22.73,48.4,50.67-21.71,50.67-48.4,50.67Z"/>
      <path d="M334.16,952.51c26.41,0,47.9,22.5,47.9,50.17s-21.49,50.17-47.9,50.17-47.9-22.5-47.9-50.17,21.49-50.17,47.9-50.17M334.16,951.51c-27.01,0-48.9,22.91-48.9,51.17s21.89,51.17,48.9,51.17,48.9-22.91,48.9-51.17-21.89-51.17-48.9-51.17h0Z"/>
    </g>
    <g>
      <path class="st1" d="M465.61,255.96c-26.69,0-48.4-22.73-48.4-50.67s21.71-50.67,48.4-50.67,48.4,22.73,48.4,50.67-21.71,50.67-48.4,50.67Z"/>
      <path d="M465.61,155.13c26.41,0,47.9,22.5,47.9,50.17s-21.49,50.17-47.9,50.17-47.9-22.5-47.9-50.17,21.49-50.17,47.9-50.17M465.61,154.13c-27.01,0-48.9,22.91-48.9,51.17s21.89,51.17,48.9,51.17,48.9-22.91,48.9-51.17-21.89-51.17-48.9-51.17h0Z"/>
    </g>
    <g>
      <path class="st2" d="M465.61,388.85c-26.69,0-48.4-22.73-48.4-50.67s21.71-50.67,48.4-50.67,48.4,22.73,48.4,50.67-21.71,50.67-48.4,50.67Z"/>
      <path d="M465.61,288.02c26.41,0,47.9,22.5,47.9,50.17s-21.49,50.17-47.9,50.17-47.9-22.5-47.9-50.17,21.49-50.17,47.9-50.17M465.61,287.02c-27.01,0-48.9,22.91-48.9,51.17s21.89,51.17,48.9,51.17,48.9-22.91,48.9-51.17-21.89-51.17-48.9-51.17h0Z"/>
    </g>
    <g>
      <path class="st1" d="M465.61,521.75c-26.69,0-48.4-22.73-48.4-50.67s21.71-50.67,48.4-50.67,48.4,22.73,48.4,50.67-21.71,50.67-48.4,50.67Z"/>
      <path d="M465.61,420.92c26.41,0,47.9,22.5,47.9,50.17s-21.49,50.17-47.9,50.17-47.9-22.5-47.9-50.17,21.49-50.17,47.9-50.17M465.61,419.92c-27.01,0-48.9,22.91-48.9,51.17s21.89,51.17,48.9,51.17,48.9-22.91,48.9-51.17-21.89-51.17-48.9-51.17h0Z"/>
    </g>
    <g>
      <path class="st2" d="M465.61,654.65c-26.69,0-48.4-22.73-48.4-50.67s21.71-50.67,48.4-50.67,48.4,22.73,48.4,50.67-21.71,50.67-48.4,50.67Z"/>
      <path d="M465.61,553.82c26.41,0,47.9,22.5,47.9,50.17s-21.49,50.17-47.9,50.17-47.9-22.5-47.9-50.17,21.49-50.17,47.9-50.17M465.61,552.82c-27.01,0-48.9,22.91-48.9,51.17s21.89,51.17,48.9,51.17,48.9-22.91,48.9-51.17-21.89-51.17-48.9-51.17h0Z"/>
    </g>
    <g>
      <path class="st2" d="M465.61,787.54c-26.69,0-48.4-22.73-48.4-50.67s21.71-50.67,48.4-50.67,48.4,22.73,48.4,50.67-21.71,50.67-48.4,50.67Z"/>
      <path d="M465.61,686.71c26.41,0,47.9,22.5,47.9,50.17s-21.49,50.17-47.9,50.17-47.9-22.5-47.9-50.17,21.49-50.17,47.9-50.17M465.61,685.71c-27.01,0-48.9,22.91-48.9,51.17s21.89,51.17,48.9,51.17,48.9-22.91,48.9-51.17-21.89-51.17-48.9-51.17h0Z"/>
    </g>
    <g>
      <path class="st2" d="M465.61,920.44c-26.69,0-48.4-22.73-48.4-50.67s21.71-50.67,48.4-50.67,48.4,22.73,48.4,50.67-21.71,50.67-48.4,50.67Z"/>
      <path d="M465.61,819.61c26.41,0,47.9,22.5,47.9,50.17s-21.49,50.17-47.9,50.17-47.9-22.5-47.9-50.17,21.49-50.17,47.9-50.17M465.61,818.61c-27.01,0-48.9,22.91-48.9,51.17s21.89,51.17,48.9,51.17,48.9-22.91,48.9-51.17-21.89-51.17-48.9-51.17h0Z"/>
    </g>
    <g>
      <path class="st1" d="M465.61,1053.34c-26.69,0-48.4-22.73-48.4-50.67s21.71-50.67,48.4-50.67,48.4,22.73,48.4,50.67-21.71,50.67-48.4,50.67Z"/>
      <path d="M465.61,952.51c26.41,0,47.9,22.5,47.9,50.17s-21.49,50.17-47.9,50.17-47.9-22.5-47.9-50.17,21.49-50.17,47.9-50.17M465.61,951.51c-27.01,0-48.9,22.91-48.9,51.17s21.89,51.17,48.9,51.17,48.9-22.91,48.9-51.17-21.89-51.17-48.9-51.17h0Z"/>
    </g>
    <g>
      <path class="st1" d="M597.06,255.96c-26.69,0-48.4-22.73-48.4-50.67s21.71-50.67,48.4-50.67,48.4,22.73,48.4,50.67-21.71,50.67-48.4,50.67Z"/>
      <path d="M597.06,155.13c26.41,0,47.9,22.5,47.9,50.17s-21.49,50.17-47.9,50.17-47.9-22.5-47.9-50.17,21.49-50.17,47.9-50.17M597.06,154.13c-27.01,0-48.9,22.91-48.9,51.17s21.89,51.17,48.9,51.17,48.9-22.91,48.9-51.17-21.89-51.17-48.9-51.17h0Z"/>
    </g>
    <g>
      <path class="st2" d="M597.06,388.85c-26.69,0-48.4-22.73-48.4-50.67s21.71-50.67,48.4-50.67,48.4,22.73,48.4,50.67-21.71,50.67-48.4,50.67Z"/>
      <path d="M597.06,288.02c26.41,0,47.9,22.5,47.9,50.17s-21.49,50.17-47.9,50.17-47.9-22.5-47.9-50.17,21.49-50.17,47.9-50.17M597.06,287.02c-27.01,0-48.9,22.91-48.9,51.17s21.89,51.17,48.9,51.17,48.9-22.91,48.9-51.17-21.89-51.17-48.9-51.17h0Z"/>
    </g>
    <g>
      <path class="st1" d="M597.06,521.75c-26.69,0-48.4-22.73-48.4-50.67s21.71-50.67,48.4-50.67,48.4,22.73,48.4,50.67-21.71,50.67-48.4,50.67Z"/>
      <path d="M597.06,420.92c26.41,0,47.9,22.5,47.9,50.17s-21.49,50.17-47.9,50.17-47.9-22.5-47.9-50.17,21.49-50.17,47.9-50.17M597.06,419.92c-27.01,0-48.9,22.91-48.9,51.17s21.89,51.17,48.9,51.17,48.9-22.91,48.9-51.17-21.89-51.17-48.9-51.17h0Z"/>
    </g>
    <g>
      <path class="st2" d="M597.06,654.65c-26.69,0-48.4-22.73-48.4-50.67s21.71-50.67,48.4-50.67,48.4,22.73,48.4,50.67-21.71,50.67-48.4,50.67Z"/>
      <path d="M597.06,553.82c26.41,0,47.9,22.5,47.9,50.17s-21.49,50.17-47.9,50.17-47.9-22.5-47.9-50.17,21.49-50.17,47.9-50.17M597.06,552.82c-27.01,0-48.9,22.91-48.9,51.17s21.89,51.17,48.9,51.17,48.9-22.91,48.9-51.17-21.89-51.17-48.9-51.17h0Z"/>
    </g>
    <g>
      <path class="st2" d="M597.06,787.54c-26.69,0-48.4-22.73-48.4-50.67s21.71-50.67,48.4-50.67,48.4,22.73,48.4,50.67-21.71,50.67-48.4,50.67Z"/>
      <path d="M597.06,686.71c26.41,0,47.9,22.5,47.9,50.17s-21.49,50.17-47.9,50.17-47.9-22.5-47.9-50.17,21.49-50.17,47.9-50.17M597.06,685.71c-27.01,0-48.9,22.91-48.9,51.17s21.89,51.17,48.9,51.17,48.9-22.91,48.9-51.17-21.89-51.17-48.9-51.17h0Z"/>
    </g>
    <g>
      <path class="st2" d="M597.06,920.44c-26.69,0-48.4-22.73-48.4-50.67s21.71-50.67,48.4-50.67,48.4,22.73,48.4,50.67-21.71,50.67-48.4,50.67Z"/>
      <path d="M597.06,819.61c26.41,0,47.9,22.5,47.9,50.17s-21.49,50.17-47.9,50.17-47.9-22.5-47.9-50.17,21.49-50.17,47.9-50.17M597.06,818.61c-27.01,0-48.9,22.91-48.9,51.17s21.89,51.17,48.9,51.17,48.9-22.91,48.9-51.17-21.89-51.17-48.9-51.17h0Z"/>
    </g>
    <g>
      <path class="st1" d="M597.06,1053.34c-26.69,0-48.4-22.73-48.4-50.67s21.71-50.67,48.4-50.67,48.4,22.73,48.4,50.67-21.71,50.67-48.4,50.67Z"/>
      <path d="M597.06,952.51c26.41,0,47.9,22.5,47.9,50.17s-21.49,50.17-47.9,50.17-47.9-22.5-47.9-50.17,21.49-50.17,47.9-50.17M597.06,951.51c-27.01,0-48.9,22.91-48.9,51.17s21.89,51.17,48.9,51.17,48.9-22.91,48.9-51.17-21.89-51.17-48.9-51.17h0Z"/>
    </g>
    <g>
      <path class="st1" d="M728.51,255.96c-26.69,0-48.4-22.73-48.4-50.67s21.71-50.67,48.4-50.67,48.4,22.73,48.4,50.67-21.71,50.67-48.4,50.67Z"/>
      <path d="M728.51,155.13c26.41,0,47.9,22.5,47.9,50.17s-21.49,50.17-47.9,50.17-47.9-22.5-47.9-50.17,21.49-50.17,47.9-50.17M728.51,154.13c-27.01,0-48.9,22.91-48.9,51.17s21.89,51.17,48.9,51.17,48.9-22.91,48.9-51.17-21.89-51.17-48.9-51.17h0Z"/>
    </g>
    <g>
      <path class="st2" d="M728.51,388.85c-26.69,0-48.4-22.73-48.4-50.67s21.71-50.67,48.4-50.67,48.4,22.73,48.4,50.67-21.71,50.67-48.4,50.67Z"/>
      <path d="M728.51,288.02c26.41,0,47.9,22.5,47.9,50.17s-21.49,50.17-47.9,50.17-47.9-22.5-47.9-50.17,21.49-50.17,47.9-50.17M728.51,287.02c-27.01,0-48.9,22.91-48.9,51.17s21.89,51.17,48.9,51.17,48.9-22.91,48.9-51.17-21.89-51.17-48.9-51.17h0Z"/>
    </g>
    <g>
      <path class="st1" d="M728.51,521.75c-26.69,0-48.4-22.73-48.4-50.67s21.71-50.67,48.4-50.67,48.4,22.73,48.4,50.67-21.71,50.67-48.4,50.67Z"/>
      <path d="M728.51,420.92c26.41,0,47.9,22.5,47.9,50.17s-21.49,50.17-47.9,50.17-47.9-22.5-47.9-50.17,21.49-50.17,47.9-50.17M728.51,419.92c-27.01,0-48.9,22.91-48.9,51.17s21.89,51.17,48.9,51.17,48.9-22.91,48.9-51.17-21.89-51.17-48.9-51.17h0Z"/>
    </g>
    <g>
      <path class="st1" d="M728.51,654.65c-26.69,0-48.4-22.73-48.4-50.67s21.71-50.67,48.4-50.67,48.4,22.73,48.4,50.67-21.71,50.67-48.4,50.67Z"/>
      <path d="M728.51,553.82c26.41,0,47.9,22.5,47.9,50.17s-21.49,50.17-47.9,50.17-47.9-22.5-47.9-50.17,21.49-50.17,47.9-50.17M728.51,552.82c-27.01,0-48.9,22.91-48.9,51.17s21.89,51.17,48.9,51.17,48.9-22.91,48.9-51.17-21.89-51.17-48.9-51.17h0Z"/>
    </g>
    <g>
      <path class="st1" d="M728.51,787.54c-26.69,0-48.4-22.73-48.4-50.67s21.71-50.67,48.4-50.67,48.4,22.73,48.4,50.67-21.71,50.67-48.4,50.67Z"/>
      <path d="M728.51,686.71c26.41,0,47.9,22.5,47.9,50.17s-21.49,50.17-47.9,50.17-47.9-22.5-47.9-50.17,21.49-50.17,47.9-50.17M728.51,685.71c-27.01,0-48.9,22.91-48.9,51.17s21.89,51.17,48.9,51.17,48.9-22.91,48.9-51.17-21.89-51.17-48.9-51.17h0Z"/>
    </g>
    <g>
      <path class="st1" d="M728.51,920.44c-26.69,0-48.4-22.73-48.4-50.67s21.71-50.67,48.4-50.67,48.4,22.73,48.4,50.67-21.71,50.67-48.4,50.67Z"/>
      <path d="M728.51,819.61c26.41,0,47.9,22.5,47.9,50.17s-21.49,50.17-47.9,50.17-47.9-22.5-47.9-50.17,21.49-50.17,47.9-50.17M728.51,818.61c-27.01,0-48.9,22.91-48.9,51.17s21.89,51.17,48.9,51.17,48.9-22.91,48.9-51.17-21.89-51.17-48.9-51.17h0Z"/>
    </g>
    <g>
      <path class="st1" d="M728.51,1053.34c-26.69,0-48.4-22.73-48.4-50.67s21.71-50.67,48.4-50.67,48.4,22.73,48.4,50.67-21.71,50.67-48.4,50.67Z"/>
      <path d="M728.51,952.51c26.41,0,47.9,22.5,47.9,50.17s-21.49,50.17-47.9,50.17-47.9-22.5-47.9-50.17,21.49-50.17,47.9-50.17M728.51,951.51c-27.01,0-48.9,22.91-48.9,51.17s21.89,51.17,48.9,51.17,48.9-22.91,48.9-51.17-21.89-51.17-48.9-51.17h0Z"/>
    </g>
    <g>
      <path class="st1" d="M859.97,255.96c-26.69,0-48.4-22.73-48.4-50.67s21.71-50.67,48.4-50.67,48.4,22.73,48.4,50.67-21.71,50.67-48.4,50.67Z"/>
      <path d="M859.97,155.13c26.41,0,47.9,22.5,47.9,50.17s-21.49,50.17-47.9,50.17-47.9-22.5-47.9-50.17,21.49-50.17,47.9-50.17M859.97,154.13c-27.01,0-48.9,22.91-48.9,51.17s21.89,51.17,48.9,51.17,48.9-22.91,48.9-51.17-21.89-51.17-48.9-51.17h0Z"/>
    </g>
    <g>
      <path class="st1" d="M859.97,388.85c-26.69,0-48.4-22.73-48.4-50.67s21.71-50.67,48.4-50.67,48.4,22.73,48.4,50.67-21.71,50.67-48.4,50.67Z"/>
      <path d="M859.97,288.02c26.41,0,47.9,22.5,47.9,50.17s-21.49,50.17-47.9,50.17-47.9-22.5-47.9-50.17,21.49-50.17,47.9-50.17M859.97,287.02c-27.01,0-48.9,22.91-48.9,51.17s21.89,51.17,48.9,51.17,48.9-22.91,48.9-51.17-21.89-51.17-48.9-51.17h0Z"/>
    </g>
    <g>
      <path class="st1" d="M859.97,521.75c-26.69,0-48.4-22.73-48.4-50.67s21.71-50.67,48.4-50.67,48.4,22.73,48.4,50.67-21.71,50.67-48.4,50.67Z"/>
      <path d="M859.97,420.92c26.41,0,47.9,22.5,47.9,50.17s-21.49,50.17-47.9,50.17-47.9-22.5-47.9-50.17,21.49-50.17,47.9-50.17M859.97,419.92c-27.01,0-48.9,22.91-48.9,51.17s21.89,51.17,48.9,51.17,48.9-22.91,48.9-51.17-21.89-51.17-48.9-51.17h0Z"/>
    </g>
    <g>
      <path class="st1" d="M859.97,654.65c-26.69,0-48.4-22.73-48.4-50.67s21.71-50.67,48.4-50.67,48.4,22.73,48.4,50.67-21.71,50.67-48.4,50.67Z"/>
      <path d="M859.97,553.82c26.41,0,47.9,22.5,47.9,50.17s-21.49,50.17-47.9,50.17-47.9-22.5-47.9-50.17,21.49-50.17,47.9-50.17M859.97,552.82c-27.01,0-48.9,22.91-48.9,51.17s21.89,51.17,48.9,51.17,48.9-22.91,48.9-51.17-21.89-51.17-48.9-51.17h0Z"/>
    </g>
    <g>
      <path class="st1" d="M859.97,787.54c-26.69,0-48.4-22.73-48.4-50.67s21.71-50.67,48.4-50.67,48.4,22.73,48.4,50.67-21.71,50.67-48.4,50.67Z"/>
      <path d="M859.97,686.71c26.41,0,47.9,22.5,47.9,50.17s-21.49,50.17-47.9,50.17-47.9-22.5-47.9-50.17,21.49-50.17,47.9-50.17M859.97,685.71c-27.01,0-48.9,22.91-48.9,51.17s21.89,51.17,48.9,51.17,48.9-22.91,48.9-51.17-21.89-51.17-48.9-51.17h0Z"/>
    </g>
    <g>
      <path class="st1" d="M859.97,920.44c-26.69,0-48.4-22.73-48.4-50.67s21.71-50.67,48.4-50.67,48.4,22.73,48.4,50.67-21.71,50.67-48.4,50.67Z"/>
      <path d="M859.97,819.61c26.41,0,47.9,22.5,47.9,50.17s-21.49,50.17-47.9,50.17-47.9-22.5-47.9-50.17,21.49-50.17,47.9-50.17M859.97,818.61c-27.01,0-48.9,22.91-48.9,51.17s21.89,51.17,48.9,51.17,48.9-22.91,48.9-51.17-21.89-51.17-48.9-51.17h0Z"/>
    </g>
    <g>
      <path class="st1" d="M859.97,1053.34c-26.69,0-48.4-22.73-48.4-50.67s21.71-50.67,48.4-50.67,48.4,22.73,48.4,50.67-21.71,50.67-48.4,50.67Z"/>
      <path d="M859.97,952.51c26.41,0,47.9,22.5,47.9,50.17s-21.49,50.17-47.9,50.17-47.9-22.5-47.9-50.17,21.49-50.17,47.9-50.17M859.97,951.51c-27.01,0-48.9,22.91-48.9,51.17s21.89,51.17,48.9,51.17,48.9-22.91,48.9-51.17-21.89-51.17-48.9-51.17h0Z"/>
    </g>
    <g>
      <path class="st1" d="M991.42,255.96c-26.69,0-48.4-22.73-48.4-50.67s21.71-50.67,48.4-50.67,48.4,22.73,48.4,50.67-21.71,50.67-48.4,50.67Z"/>
      <path d="M991.42,155.13c26.41,0,47.9,22.5,47.9,50.17s-21.49,50.17-47.9,50.17-47.9-22.5-47.9-50.17,21.49-50.17,47.9-50.17M991.42,154.13c-27.01,0-48.9,22.91-48.9,51.17s21.89,51.17,48.9,51.17,48.9-22.91,48.9-51.17-21.89-51.17-48.9-51.17h0Z"/>
    </g>
    <g>
      <path class="st1" d="M991.42,388.85c-26.69,0-48.4-22.73-48.4-50.67s21.71-50.67,48.4-50.67,48.4,22.73,48.4,50.67-21.71,50.67-48.4,50.67Z"/>
      <path d="M991.42,288.02c26.41,0,47.9,22.5,47.9,50.17s-21.49,50.17-47.9,50.17-47.9-22.5-47.9-50.17,21.49-50.17,47.9-50.17M991.42,287.02c-27.01,0-48.9,22.91-48.9,51.17s21.89,51.17,48.9,51.17,48.9-22.91,48.9-51.17-21.89-51.17-48.9-51.17h0Z"/>
    </g>
    <g>
      <path class="st1" d="M991.42,521.75c-26.69,0-48.4-22.73-48.4-50.67s21.71-50.67,48.4-50.67,48.4,22.73,48.4,50.67-21.71,50.67-48.4,50.67Z"/>
      <path d="M991.42,420.92c26.41,0,47.9,22.5,47.9,50.17s-21.49,50.17-47.9,50.17-47.9-22.5-47.9-50.17,21.49-50.17,47.9-50.17M991.42,419.92c-27.01,0-48.9,22.91-48.9,51.17s21.89,51.17,48.9,51.17,48.9-22.91,48.9-51.17-21.89-51.17-48.9-51.17h0Z"/>
    </g>
    <g>
      <path class="st1" d="M991.42,654.65c-26.69,0-48.4-22.73-48.4-50.67s21.71-50.67,48.4-50.67,48.4,22.73,48.4,50.67-21.71,50.67-48.4,50.67Z"/>
      <path d="M991.42,553.82c26.41,0,47.9,22.5,47.9,50.17s-21.49,50.17-47.9,50.17-47.9-22.5-47.9-50.17,21.49-50.17,47.9-50.17M991.42,552.82c-27.01,0-48.9,22.91-48.9,51.17s21.89,51.17,48.9,51.17,48.9-22.91,48.9-51.17-21.89-51.17-48.9-51.17h0Z"/>
    </g>
    <g>
      <path class="st1" d="M991.42,787.54c-26.69,0-48.4-22.73-48.4-50.67s21.71-50.67,48.4-50.67,48.4,22.73,48.4,50.67-21.71,50.67-48.4,50.67Z"/>
      <path d="M991.42,686.71c26.41,0,47.9,22.5,47.9,50.17s-21.49,50.17-47.9,50.17-47.9-22.5-47.9-50.17,21.49-50.17,47.9-50.17M991.42,685.71c-27.01,0-48.9,22.91-48.9,51.17s21.89,51.17,48.9,51.17,48.9-22.91,48.9-51.17-21.89-51.17-48.9-51.17h0Z"/>
    </g>
    <g>
      <path class="st1" d="M991.42,920.44c-26.69,0-48.4-22.73-48.4-50.67s21.71-50.67,48.4-50.67,48.4,22.73,48.4,50.67-21.71,50.67-48.4,50.67Z"/>
      <path d="M991.42,819.61c26.41,0,47.9,22.5,47.9,50.17s-21.49,50.17-47.9,50.17-47.9-22.5-47.9-50.17,21.49-50.17,47.9-50.17M991.42,818.61c-27.01,0-48.9,22.91-48.9,51.17s21.89,51.17,48.9,51.17,48.9-22.91,48.9-51.17-21.89-51.17-48.9-51.17h0Z"/>
    </g>
    <g>
      <path class="st1" d="M991.42,1053.34c-26.69,0-48.4-22.73-48.4-50.67s21.71-50.67,48.4-50.67,48.4,22.73,48.4,50.67-21.71,50.67-48.4,50.67Z"/>
      <path d="M991.42,952.51c26.41,0,47.9,22.5,47.9,50.17s-21.49,50.17-47.9,50.17-47.9-22.5-47.9-50.17,21.49-50.17,47.9-50.17M991.42,951.51c-27.01,0-48.9,22.91-48.9,51.17s21.89,51.17,48.9,51.17,48.9-22.91,48.9-51.17-21.89-51.17-48.9-51.17h0Z"/>
    </g>
    <g>
      <path class="st1" d="M1122.87,255.96c-26.69,0-48.4-22.73-48.4-50.67s21.71-50.67,48.4-50.67,48.4,22.73,48.4,50.67-21.71,50.67-48.4,50.67Z"/>
      <path d="M1122.87,155.13c26.41,0,47.9,22.5,47.9,50.17s-21.49,50.17-47.9,50.17-47.9-22.5-47.9-50.17,21.49-50.17,47.9-50.17M1122.87,154.13c-27.01,0-48.9,22.91-48.9,51.17s21.89,51.17,48.9,51.17,48.9-22.91,48.9-51.17-21.89-51.17-48.9-51.17h0Z"/>
    </g>
    <g>
      <path class="st1" d="M1122.87,388.85c-26.69,0-48.4-22.73-48.4-50.67s21.71-50.67,48.4-50.67,48.4,22.73,48.4,50.67-21.71,50.67-48.4,50.67Z"/>
      <path d="M1122.87,288.02c26.41,0,47.9,22.5,47.9,50.17s-21.49,50.17-47.9,50.17-47.9-22.5-47.9-50.17,21.49-50.17,47.9-50.17M1122.87,287.02c-27.01,0-48.9,22.91-48.9,51.17s21.89,51.17,48.9,51.17,48.9-22.91,48.9-51.17-21.89-51.17-48.9-51.17h0Z"/>
    </g>
    <g>
      <path class="st1" d="M1122.87,521.75c-26.69,0-48.4-22.73-48.4-50.67s21.71-50.67,48.4-50.67,48.4,22.73,48.4,50.67-21.71,50.67-48.4,50.67Z"/>
      <path d="M1122.87,420.92c26.41,0,47.9,22.5,47.9,50.17s-21.49,50.17-47.9,50.17-47.9-22.5-47.9-50.17,21.49-50.17,47.9-50.17M1122.87,419.92c-27.01,0-48.9,22.91-48.9,51.17s21.89,51.17,48.9,51.17,48.9-22.91,48.9-51.17-21.89-51.17-48.9-51.17h0Z"/>
    </g>
    <g>
      <path class="st1" d="M1122.87,654.65c-26.69,0-48.4-22.73-48.4-50.67s21.71-50.67,48.4-50.67,48.4,22.73,48.4,50.67-21.71,50.67-48.4,50.67Z"/>
      <path d="M1122.87,553.82c26.41,0,47.9,22.5,47.9,50.17s-21.49,50.17-47.9,50.17-47.9-22.5-47.9-50.17,21.49-50.17,47.9-50.17M1122.87,552.82c-27.01,0-48.9,22.91-48.9,51.17s21.89,51.17,48.9,51.17,48.9-22.91,48.9-51.17-21.89-51.17-48.9-51.17h0Z"/>
    </g>
    <g>
      <path class="st1" d="M1122.87,787.54c-26.69,0-48.4-22.73-48.4-50.67s21.71-50.67,48.4-50.67,48.4,22.73,48.4,50.67-21.71,50.67-48.4,50.67Z"/>
      <path d="M1122.87,686.71c26.41,0,47.9,22.5,47.9,50.17s-21.49,50.17-47.9,50.17-47.9-22.5-47.9-50.17,21.49-50.17,47.9-50.17M1122.87,685.71c-27.01,0-48.9,22.91-48.9,51.17s21.89,51.17,48.9,51.17,48.9-22.91,48.9-51.17-21.89-51.17-48.9-51.17h0Z"/>
    </g>
    <g>
      <path class="st1" d="M1122.87,920.44c-26.69,0-48.4-22.73-48.4-50.67s21.71-50.67,48.4-50.67,48.4,22.73,48.4,50.67-21.71,50.67-48.4,50.67Z"/>
      <path d="M1122.87,819.61c26.41,0,47.9,22.5,47.9,50.17s-21.49,50.17-47.9,50.17-47.9-22.5-47.9-50.17,21.49-50.17,47.9-50.17M1122.87,818.61c-27.01,0-48.9,22.91-48.9,51.17s21.89,51.17,48.9,51.17,48.9-22.91,48.9-51.17-21.89-51.17-48.9-51.17h0Z"/>
    </g>
    <g>
      <path class="st1" d="M1122.87,1053.34c-26.69,0-48.4-22.73-48.4-50.67s21.71-50.67,48.4-50.67,48.4,22.73,48.4,50.67-21.71,50.67-48.4,50.67Z"/>
      <path d="M1122.87,952.51c26.41,0,47.9,22.5,47.9,50.17s-21.49,50.17-47.9,50.17-47.9-22.5-47.9-50.17,21.49-50.17,47.9-50.17M1122.87,951.51c-27.01,0-48.9,22.91-48.9,51.17s21.89,51.17,48.9,51.17,48.9-22.91,48.9-51.17-21.89-51.17-48.9-51.17h0Z"/>
    </g>
    <g>
      <path class="st1" d="M1254.32,255.96c-26.69,0-48.4-22.73-48.4-50.67s21.71-50.67,48.4-50.67,48.4,22.73,48.4,50.67-21.71,50.67-48.4,50.67Z"/>
      <path d="M1254.32,155.13c26.41,0,47.9,22.5,47.9,50.17s-21.49,50.17-47.9,50.17-47.9-22.5-47.9-50.17,21.49-50.17,47.9-50.17M1254.32,154.13c-27.01,0-48.9,22.91-48.9,51.17s21.89,51.17,48.9,51.17,48.9-22.91,48.9-51.17-21.89-51.17-48.9-51.17h0Z"/>
    </g>
    <g>
      <path class="st1" d="M1254.32,388.85c-26.69,0-48.4-22.73-48.4-50.67s21.71-50.67,48.4-50.67,48.4,22.73,48.4,50.67-21.71,50.67-48.4,50.67Z"/>
      <path d="M1254.32,288.02c26.41,0,47.9,22.5,47.9,50.17s-21.49,50.17-47.9,50.17-47.9-22.5-47.9-50.17,21.49-50.17,47.9-50.17M1254.32,287.02c-27.01,0-48.9,22.91-48.9,51.17s21.89,51.17,48.9,51.17,48.9-22.91,48.9-51.17-21.89-51.17-48.9-51.17h0Z"/>
    </g>
    <g>
      <path class="st1" d="M1254.32,521.75c-26.69,0-48.4-22.73-48.4-50.67s21.71-50.67,48.4-50.67,48.4,22.73,48.4,50.67-21.71,50.67-48.4,50.67Z"/>
      <path d="M1254.32,420.92c26.41,0,47.9,22.5,47.9,50.17s-21.49,50.17-47.9,50.17-47.9-22.5-47.9-50.17,21.49-50.17,47.9-50.17M1254.32,419.92c-27.01,0-48.9,22.91-48.9,51.17s21.89,51.17,48.9,51.17,48.9-22.91,48.9-51.17-21.89-51.17-48.9-51.17h0Z"/>
    </g>
    <g>
      <path class="st1" d="M1254.32,654.65c-26.69,0-48.4-22.73-48.4-50.67s21.71-50.67,48.4-50.67,48.4,22.73,48.4,50.67-21.71,50.67-48.4,50.67Z"/>
      <path d="M1254.32,553.82c26.41,0,47.9,22.5,47.9,50.17s-21.49,50.17-47.9,50.17-47.9-22.5-47.9-50.17,21.49-50.17,47.9-50.17M1254.32,552.82c-27.01,0-48.9,22.91-48.9,51.17s21.89,51.17,48.9,51.17,48.9-22.91,48.9-51.17-21.89-51.17-48.9-51.17h0Z"/>
    </g>
    <g>
      <path class="st1" d="M1254.32,787.54c-26.69,0-48.4-22.73-48.4-50.67s21.71-50.67,48.4-50.67,48.4,22.73,48.4,50.67-21.71,50.67-48.4,50.67Z"/>
      <path d="M1254.32,686.71c26.41,0,47.9,22.5,47.9,50.17s-21.49,50.17-47.9,50.17-47.9-22.5-47.9-50.17,21.49-50.17,47.9-50.17M1254.32,685.71c-27.01,0-48.9,22.91-48.9,51.17s21.89,51.17,48.9,51.17,48.9-22.91,48.9-51.17-21.89-51.17-48.9-51.17h0Z"/>
    </g>
    <g>
      <path class="st1" d="M1254.32,920.44c-26.69,0-48.4-22.73-48.4-50.67s21.71-50.67,48.4-50.67,48.4,22.73,48.4,50.67-21.71,50.67-48.4,50.67Z"/>
      <path d="M1254.32,819.61c26.41,0,47.9,22.5,47.9,50.17s-21.49,50.17-47.9,50.17-47.9-22.5-47.9-50.17,21.49-50.17,47.9-50.17M1254.32,818.61c-27.01,0-48.9,22.91-48.9,51.17s21.89,51.17,48.9,51.17,48.9-22.91,48.9-51.17-21.89-51.17-48.9-51.17h0Z"/>
    </g>
    <g>
      <path class="st1" d="M1254.32,1053.34c-26.69,0-48.4-22.73-48.4-50.67s21.71-50.67,48.4-50.67,48.4,22.73,48.4,50.67-21.71,50.67-48.4,50.67Z"/>
      <path d="M1254.32,952.51c26.41,0,47.9,22.5,47.9,50.17s-21.49,50.17-47.9,50.17-47.9-22.5-47.9-50.17,21.49-50.17,47.9-50.17M1254.32,951.51c-27.01,0-48.9,22.91-48.9,51.17s21.89,51.17,48.9,51.17,48.9-22.91,48.9-51.17-21.89-51.17-48.9-51.17h0Z"/>
    </g>
    <g>
      <path class="st1" d="M1385.77,255.96c-26.69,0-48.4-22.73-48.4-50.67s21.71-50.67,48.4-50.67,48.4,22.73,48.4,50.67-21.71,50.67-48.4,50.67Z"/>
      <path d="M1385.77,155.13c26.41,0,47.9,22.5,47.9,50.17s-21.49,50.17-47.9,50.17-47.9-22.5-47.9-50.17,21.49-50.17,47.9-50.17M1385.77,154.13c-27.01,0-48.9,22.91-48.9,51.17s21.89,51.17,48.9,51.17,48.9-22.91,48.9-51.17-21.89-51.17-48.9-51.17h0Z"/>
    </g>
    <g>
      <path class="st1" d="M1385.77,388.85c-26.69,0-48.4-22.73-48.4-50.67s21.71-50.67,48.4-50.67,48.4,22.73,48.4,50.67-21.71,50.67-48.4,50.67Z"/>
      <path d="M1385.77,288.02c26.41,0,47.9,22.5,47.9,50.17s-21.49,50.17-47.9,50.17-47.9-22.5-47.9-50.17,21.49-50.17,47.9-50.17M1385.77,287.02c-27.01,0-48.9,22.91-48.9,51.17s21.89,51.17,48.9,51.17,48.9-22.91,48.9-51.17-21.89-51.17-48.9-51.17h0Z"/>
    </g>
    <g>
      <path class="st1" d="M1385.77,521.75c-26.69,0-48.4-22.73-48.4-50.67s21.71-50.67,48.4-50.67,48.4,22.73,48.4,50.67-21.71,50.67-48.4,50.67Z"/>
      <path d="M1385.77,420.92c26.41,0,47.9,22.5,47.9,50.17s-21.49,50.17-47.9,50.17-47.9-22.5-47.9-50.17,21.49-50.17,47.9-50.17M1385.77,419.92c-27.01,0-48.9,22.91-48.9,51.17s21.89,51.17,48.9,51.17,48.9-22.91,48.9-51.17-21.89-51.17-48.9-51.17h0Z"/>
    </g>
    <g>
      <path class="st1" d="M1385.77,654.65c-26.69,0-48.4-22.73-48.4-50.67s21.71-50.67,48.4-50.67,48.4,22.73,48.4,50.67-21.71,50.67-48.4,50.67Z"/>
      <path d="M1385.77,553.82c26.41,0,47.9,22.5,47.9,50.17s-21.49,50.17-47.9,50.17-47.9-22.5-47.9-50.17,21.49-50.17,47.9-50.17M1385.77,552.82c-27.01,0-48.9,22.91-48.9,51.17s21.89,51.17,48.9,51.17,48.9-22.91,48.9-51.17-21.89-51.17-48.9-51.17h0Z"/>
    </g>
    <g>
      <path class="st1" d="M1385.77,787.54c-26.69,0-48.4-22.73-48.4-50.67s21.71-50.67,48.4-50.67,48.4,22.73,48.4,50.67-21.71,50.67-48.4,50.67Z"/>
      <path d="M1385.77,686.71c26.41,0,47.9,22.5,47.9,50.17s-21.49,50.17-47.9,50.17-47.9-22.5-47.9-50.17,21.49-50.17,47.9-50.17M1385.77,685.71c-27.01,0-48.9,22.91-48.9,51.17s21.89,51.17,48.9,51.17,48.9-22.91,48.9-51.17-21.89-51.17-48.9-51.17h0Z"/>
    </g>
    <g>
      <path class="st1" d="M1385.77,920.44c-26.69,0-48.4-22.73-48.4-50.67s21.71-50.67,48.4-50.67,48.4,22.73,48.4,50.67-21.71,50.67-48.4,50.67Z"/>
      <path d="M1385.77,819.61c26.41,0,47.9,22.5,47.9,50.17s-21.49,50.17-47.9,50.17-47.9-22.5-47.9-50.17,21.49-50.17,47.9-50.17M1385.77,818.61c-27.01,0-48.9,22.91-48.9,51.17s21.89,51.17,48.9,51.17,48.9-22.91,48.9-51.17-21.89-51.17-48.9-51.17h0Z"/>
    </g>
    <g>
      <path class="st1" d="M1385.77,1053.34c-26.69,0-48.4-22.73-48.4-50.67s21.71-50.67,48.4-50.67,48.4,22.73,48.4,50.67-21.71,50.67-48.4,50.67Z"/>
      <path d="M1385.77,952.51c26.41,0,47.9,22.5,47.9,50.17s-21.49,50.17-47.9,50.17-47.9-22.5-47.9-50.17,21.49-50.17,47.9-50.17M1385.77,951.51c-27.01,0-48.9,22.91-48.9,51.17s21.89,51.17,48.9,51.17,48.9-22.91,48.9-51.17-21.89-51.17-48.9-51.17h0Z"/>
    </g>
    <g>
      <path class="st1" d="M1517.22,255.96c-26.69,0-48.4-22.73-48.4-50.67s21.71-50.67,48.4-50.67,48.4,22.73,48.4,50.67-21.71,50.67-48.4,50.67Z"/>
      <path d="M1517.22,155.13c26.41,0,47.9,22.5,47.9,50.17s-21.49,50.17-47.9,50.17-47.9-22.5-47.9-50.17,21.49-50.17,47.9-50.17M1517.22,154.13c-27.01,0-48.9,22.91-48.9,51.17s21.89,51.17,48.9,51.17,48.9-22.91,48.9-51.17-21.89-51.17-48.9-51.17h0Z"/>
    </g>
    <g>
      <path class="st1" d="M1517.22,388.85c-26.69,0-48.4-22.73-48.4-50.67s21.71-50.67,48.4-50.67,48.4,22.73,48.4,50.67-21.71,50.67-48.4,50.67Z"/>
      <path d="M1517.22,288.02c26.41,0,47.9,22.5,47.9,50.17s-21.49,50.17-47.9,50.17-47.9-22.5-47.9-50.17,21.49-50.17,47.9-50.17M1517.22,287.02c-27.01,0-48.9,22.91-48.9,51.17s21.89,51.17,48.9,51.17,48.9-22.91,48.9-51.17-21.89-51.17-48.9-51.17h0Z"/>
    </g>
    <g>
      <path class="st1" d="M1517.22,521.75c-26.69,0-48.4-22.73-48.4-50.67s21.71-50.67,48.4-50.67,48.4,22.73,48.4,50.67-21.71,50.67-48.4,50.67Z"/>
      <path d="M1517.22,420.92c26.41,0,47.9,22.5,47.9,50.17s-21.49,50.17-47.9,50.17-47.9-22.5-47.9-50.17,21.49-50.17,47.9-50.17M1517.22,419.92c-27.01,0-48.9,22.91-48.9,51.17s21.89,51.17,48.9,51.17,48.9-22.91,48.9-51.17-21.89-51.17-48.9-51.17h0Z"/>
    </g>
    <g>
      <path class="st1" d="M1517.22,654.65c-26.69,0-48.4-22.73-48.4-50.67s21.71-50.67,48.4-50.67,48.4,22.73,48.4,50.67-21.71,50.67-48.4,50.67Z"/>
      <path d="M1517.22,553.82c26.41,0,47.9,22.5,47.9,50.17s-21.49,50.17-47.9,50.17-47.9-22.5-47.9-50.17,21.49-50.17,47.9-50.17M1517.22,552.82c-27.01,0-48.9,22.91-48.9,51.17s21.89,51.17,48.9,51.17,48.9-22.91,48.9-51.17-21.89-51.17-48.9-51.17h0Z"/>
    </g>
    <g>
      <path class="st1" d="M1517.22,787.54c-26.69,0-48.4-22.73-48.4-50.67s21.71-50.67,48.4-50.67,48.4,22.73,48.4,50.67-21.71,50.67-48.4,50.67Z"/>
      <path d="M1517.22,686.71c26.41,0,47.9,22.5,47.9,50.17s-21.49,50.17-47.9,50.17-47.9-22.5-47.9-50.17,21.49-50.17,47.9-50.17M1517.22,685.71c-27.01,0-48.9,22.91-48.9,51.17s21.89,51.17,48.9,51.17,48.9-22.91,48.9-51.17-21.89-51.17-48.9-51.17h0Z"/>
    </g>
    <g>
      <path class="st1" d="M1517.22,920.44c-26.69,0-48.4-22.73-48.4-50.67s21.71-50.67,48.4-50.67,48.4,22.73,48.4,50.67-21.71,50.67-48.4,50.67Z"/>
      <path d="M1517.22,819.61c26.41,0,47.9,22.5,47.9,50.17s-21.49,50.17-47.9,50.17-47.9-22.5-47.9-50.17,21.49-50.17,47.9-50.17M1517.22,818.61c-27.01,0-48.9,22.91-48.9,51.17s21.89,51.17,48.9,51.17,48.9-22.91,48.9-51.17-21.89-51.17-48.9-51.17h0Z"/>
    </g>
    <g>
      <path class="st1" d="M1517.22,1053.34c-26.69,0-48.4-22.73-48.4-50.67s21.71-50.67,48.4-50.67,48.4,22.73,48.4,50.67-21.71,50.67-48.4,50.67Z"/>
      <path d="M1517.22,952.51c26.41,0,47.9,22.5,47.9,50.17s-21.49,50.17-47.9,50.17-47.9-22.5-47.9-50.17,21.49-50.17,47.9-50.17M1517.22,951.51c-27.01,0-48.9,22.91-48.9,51.17s21.89,51.17,48.9,51.17,48.9-22.91,48.9-51.17-21.89-51.17-48.9-51.17h0Z"/>
    </g>
  </g>
  <g id="Layer_2">
    <g>
      <path class="st0" d="M50.98,51.28c-.77.38-2.3.77-4.27.77-4.56,0-7.99-2.88-7.99-8.19s3.43-8.5,8.45-8.5c2.02,0,3.29.43,3.84.72l-.5,1.7c-.79-.38-1.92-.67-3.26-.67-3.79,0-6.31,2.42-6.31,6.67,0,3.96,2.28,6.5,6.22,6.5,1.27,0,2.57-.26,3.41-.67l.43,1.66Z"/>
      <path class="st0" d="M53.59,35.84c1.27-.19,2.78-.34,4.44-.34,3,0,5.14.7,6.55,2.02,1.44,1.32,2.28,3.19,2.28,5.81s-.82,4.8-2.33,6.29c-1.51,1.51-4.01,2.33-7.15,2.33-1.49,0-2.74-.07-3.79-.19v-15.91ZM55.68,50.15c.53.1,1.3.12,2.11.12,4.46,0,6.89-2.5,6.89-6.86.02-3.82-2.14-6.24-6.55-6.24-1.08,0-1.9.1-2.45.22v12.77Z"/>
      <path class="st0" d="M73.42,38.17h-.05l-2.71,1.46-.41-1.61,3.41-1.82h1.8v15.6h-2.04v-13.63Z"/>
      <path class="st0" d="M82.37,50.32c.46.05.98,0,1.7-.07,1.22-.17,2.38-.67,3.26-1.51,1.03-.94,1.78-2.3,2.06-4.15h-.07c-.86,1.06-2.11,1.68-3.67,1.68-2.81,0-4.61-2.11-4.61-4.78,0-2.95,2.14-5.54,5.33-5.54s5.16,2.59,5.16,6.58c0,3.43-1.15,5.83-2.69,7.32-1.2,1.18-2.86,1.9-4.54,2.09-.77.12-1.44.14-1.94.12v-1.73ZM83.14,41.34c0,1.94,1.18,3.31,3,3.31,1.42,0,2.52-.7,3.07-1.63.12-.19.19-.43.19-.77,0-2.66-.98-4.7-3.19-4.7-1.8,0-3.07,1.58-3.07,3.79Z"/>
      <path class="st0" d="M99.98,51.81v-4.25h-7.25v-1.39l6.96-9.96h2.28v9.7h2.18v1.66h-2.18v4.25h-1.99ZM99.98,45.9v-5.21c0-.82.02-1.63.07-2.45h-.07c-.48.91-.86,1.58-1.3,2.3l-3.82,5.3v.05h5.11Z"/>
      <path class="st0" d="M39.67,64.64c.91-.19,2.35-.34,3.82-.34,2.09,0,3.43.36,4.44,1.18.84.62,1.34,1.58,1.34,2.86,0,1.56-1.03,2.93-2.74,3.55v.05c1.54.38,3.34,1.66,3.34,4.06,0,1.39-.55,2.45-1.37,3.24-1.13,1.03-2.95,1.51-5.59,1.51-1.44,0-2.54-.1-3.24-.19v-15.91ZM41.76,71.27h1.9c2.21,0,3.5-1.15,3.5-2.71,0-1.9-1.44-2.64-3.55-2.64-.96,0-1.51.07-1.85.14v5.21ZM41.76,79.02c.41.07,1.01.1,1.75.1,2.16,0,4.15-.79,4.15-3.14,0-2.21-1.9-3.12-4.18-3.12h-1.73v6.17Z"/>
      <path class="st0" d="M54.77,64.43v9.58c0,3.62,1.61,5.16,3.77,5.16,2.4,0,3.94-1.58,3.94-5.16v-9.58h2.11v9.43c0,4.97-2.62,7.01-6.12,7.01-3.31,0-5.81-1.9-5.81-6.91v-9.53h2.11Z"/>
      <path class="st0" d="M71.76,80.61l-5.28-16.18h2.26l2.52,7.97c.7,2.18,1.3,4.15,1.73,6.05h.05c.46-1.87,1.13-3.91,1.85-6.02l2.74-7.99h2.23l-5.78,16.18h-2.3Z"/>
      <path class="st0" d="M89.76,66.49c-.43-.02-.98,0-1.58.1-3.31.55-5.06,2.98-5.42,5.54h.07c.74-.98,2.04-1.8,3.77-1.8,2.76,0,4.7,1.99,4.7,5.04,0,2.86-1.94,5.5-5.18,5.5s-5.52-2.59-5.52-6.65c0-3.07,1.1-5.5,2.64-7.03,1.3-1.27,3.02-2.06,4.99-2.3.62-.1,1.15-.12,1.54-.12v1.73ZM89.16,75.49c0-2.23-1.27-3.58-3.22-3.58-1.27,0-2.45.79-3.02,1.92-.14.24-.24.55-.24.94.05,2.57,1.22,4.46,3.43,4.46,1.82,0,3.05-1.51,3.05-3.74Z"/>
      <path class="st0" d="M97.75,66.97h-.05l-2.71,1.46-.41-1.61,3.41-1.82h1.8v15.6h-2.04v-13.63Z"/>
      <path class="st0" d="M114.79,66.78h-5.95l-.6,4.01c.36-.05.7-.1,1.27-.1,1.2,0,2.4.26,3.36.84,1.22.7,2.23,2.04,2.23,4.01,0,3.05-2.42,5.33-5.81,5.33-1.7,0-3.14-.48-3.89-.96l.53-1.61c.65.38,1.92.86,3.34.86,1.99,0,3.7-1.3,3.7-3.38-.02-2.02-1.37-3.46-4.49-3.46-.89,0-1.58.1-2.16.17l1.01-7.49h7.46v1.78Z"/>
      <path class="st0" d="M38.93,109.41v-1.3l1.66-1.61c3.98-3.79,5.78-5.81,5.81-8.16,0-1.58-.77-3.05-3.1-3.05-1.42,0-2.59.72-3.31,1.32l-.67-1.49c1.08-.91,2.62-1.58,4.42-1.58,3.36,0,4.78,2.3,4.78,4.54,0,2.88-2.09,5.21-5.38,8.38l-1.25,1.15v.05h7.01v1.75h-9.96Z"/>
      <path class="st0" d="M66.72,106.24c0,1.2.02,2.26.1,3.17h-1.87l-.12-1.9h-.05c-.55.94-1.78,2.16-3.84,2.16-1.82,0-4.01-1.01-4.01-5.09v-6.79h2.11v6.43c0,2.21.67,3.7,2.59,3.7,1.42,0,2.4-.98,2.78-1.92.12-.31.19-.7.19-1.08v-7.13h2.11v8.45Z"/>
      <path class="st0" d="M70.3,93.23h2.09v14.43h6.91v1.75h-9v-16.18Z"/>
    </g>
    <g>
      <path class="st0" d="M182.76,51.53c-.77.38-2.3.77-4.27.77-4.56,0-7.99-2.88-7.99-8.19s3.43-8.5,8.45-8.5c2.02,0,3.29.43,3.84.72l-.5,1.7c-.79-.38-1.92-.67-3.26-.67-3.79,0-6.31,2.42-6.31,6.67,0,3.96,2.28,6.5,6.22,6.5,1.27,0,2.57-.26,3.41-.67l.43,1.66Z"/>
      <path class="st0" d="M185.37,36.09c1.27-.19,2.78-.34,4.44-.34,3,0,5.14.7,6.55,2.02,1.44,1.32,2.28,3.19,2.28,5.81s-.82,4.8-2.33,6.29c-1.51,1.51-4.01,2.33-7.15,2.33-1.49,0-2.74-.07-3.79-.19v-15.91ZM187.46,50.4c.53.1,1.3.12,2.11.12,4.46,0,6.89-2.5,6.89-6.86.02-3.82-2.14-6.24-6.55-6.24-1.08,0-1.9.1-2.45.22v12.77Z"/>
      <path class="st0" d="M205.2,38.42h-.05l-2.71,1.46-.41-1.61,3.41-1.82h1.8v15.6h-2.04v-13.63Z"/>
      <path class="st0" d="M212.73,48.09c0-1.97,1.18-3.36,3.1-4.18l-.02-.07c-1.73-.82-2.47-2.16-2.47-3.5,0-2.47,2.09-4.15,4.82-4.15,3.02,0,4.54,1.9,4.54,3.84,0,1.32-.65,2.74-2.57,3.65v.07c1.94.77,3.14,2.14,3.14,4.03,0,2.71-2.33,4.54-5.3,4.54-3.26,0-5.23-1.94-5.23-4.22ZM221.13,48c0-1.9-1.32-2.81-3.43-3.41-1.82.53-2.81,1.73-2.81,3.22-.07,1.58,1.13,2.98,3.12,2.98s3.12-1.18,3.12-2.78ZM215.33,40.2c0,1.56,1.18,2.4,2.98,2.88,1.34-.46,2.38-1.42,2.38-2.83,0-1.25-.74-2.54-2.64-2.54-1.75,0-2.71,1.15-2.71,2.5Z"/>
      <path class="st0" d="M225.74,49.63c.6.38,1.99.98,3.46.98,2.71,0,3.55-1.73,3.53-3.02-.02-2.18-1.99-3.12-4.03-3.12h-1.18v-1.58h1.18c1.54,0,3.48-.79,3.48-2.64,0-1.25-.79-2.35-2.74-2.35-1.25,0-2.45.55-3.12,1.03l-.55-1.54c.82-.6,2.4-1.2,4.08-1.2,3.07,0,4.46,1.82,4.46,3.72,0,1.61-.96,2.98-2.88,3.67v.05c1.92.38,3.48,1.82,3.48,4.01,0,2.5-1.94,4.68-5.69,4.68-1.75,0-3.29-.55-4.06-1.06l.58-1.63Z"/>
      <path class="st0" d="M171.45,64.89c.91-.19,2.35-.34,3.82-.34,2.09,0,3.43.36,4.44,1.18.84.62,1.34,1.58,1.34,2.86,0,1.56-1.03,2.93-2.74,3.55v.05c1.54.38,3.34,1.66,3.34,4.06,0,1.39-.55,2.45-1.37,3.24-1.13,1.03-2.95,1.51-5.59,1.51-1.44,0-2.54-.1-3.24-.19v-15.91ZM173.54,71.52h1.9c2.21,0,3.5-1.15,3.5-2.71,0-1.9-1.44-2.64-3.55-2.64-.96,0-1.51.07-1.85.14v5.21ZM173.54,79.27c.41.07,1.01.1,1.75.1,2.16,0,4.15-.79,4.15-3.14,0-2.21-1.9-3.12-4.18-3.12h-1.73v6.17Z"/>
      <path class="st0" d="M188.11,80.85l-5.28-16.18h2.26l2.52,7.97c.7,2.18,1.3,4.15,1.73,6.05h.05c.46-1.87,1.13-3.91,1.85-6.02l2.74-7.99h2.23l-5.78,16.18h-2.3Z"/>
      <path class="st0" d="M207.33,65.25v1.39l-6.79,14.21h-2.18l6.77-13.8v-.05h-7.63v-1.75h9.84Z"/>
      <path class="st0" d="M214.1,67.22h-.05l-2.71,1.46-.41-1.61,3.41-1.82h1.8v15.6h-2.04v-13.63Z"/>
      <path class="st0" d="M226.41,67.22h-.05l-2.71,1.46-.41-1.61,3.41-1.82h1.8v15.6h-2.04v-13.63Z"/>
      <path class="st0" d="M170.71,109.65v-1.3l1.66-1.61c3.98-3.79,5.78-5.81,5.81-8.16,0-1.58-.77-3.05-3.1-3.05-1.42,0-2.59.72-3.31,1.32l-.67-1.49c1.08-.91,2.62-1.58,4.42-1.58,3.36,0,4.78,2.3,4.78,4.54,0,2.88-2.09,5.21-5.38,8.38l-1.25,1.15v.05h7.01v1.75h-9.96Z"/>
      <path class="st0" d="M198.5,106.49c0,1.2.02,2.26.1,3.17h-1.87l-.12-1.9h-.05c-.55.94-1.78,2.16-3.84,2.16-1.82,0-4.01-1.01-4.01-5.09v-6.79h2.11v6.43c0,2.21.67,3.7,2.59,3.7,1.42,0,2.4-.98,2.78-1.92.12-.31.19-.7.19-1.08v-7.13h2.11v8.45Z"/>
      <path class="st0" d="M202.08,93.48h2.09v14.43h6.91v1.75h-9v-16.18Z"/>
    </g>
    <g>
      <path class="st0" d="M311.26,42.85c-.68.3-2.05.59-3.8.59-4.05,0-7.1-2.23-7.1-6.34s3.05-6.58,7.51-6.58c1.79,0,2.92.33,3.41.56l-.45,1.32c-.7-.3-1.71-.52-2.9-.52-3.37,0-5.61,1.88-5.61,5.17,0,3.07,2.03,5.04,5.52,5.04,1.13,0,2.28-.2,3.03-.52l.38,1.28Z"/>
      <path class="st0" d="M313.59,30.89c1.13-.15,2.47-.26,3.95-.26,2.67,0,4.57.54,5.82,1.56,1.28,1.02,2.03,2.47,2.03,4.5s-.73,3.72-2.07,4.87c-1.34,1.17-3.56,1.8-6.36,1.8-1.32,0-2.43-.06-3.37-.15v-12.32ZM315.44,41.97c.47.07,1.15.09,1.88.09,3.97,0,6.12-1.93,6.12-5.32.02-2.96-1.9-4.83-5.82-4.83-.96,0-1.69.07-2.18.17v9.89Z"/>
      <path class="st0" d="M327.58,41.38c.53.3,1.77.76,3.07.76,2.41,0,3.16-1.34,3.14-2.34-.02-1.69-1.77-2.42-3.58-2.42h-1.05v-1.23h1.05c1.37,0,3.09-.61,3.09-2.04,0-.97-.7-1.82-2.43-1.82-1.11,0-2.18.43-2.77.8l-.49-1.19c.73-.46,2.13-.93,3.63-.93,2.73,0,3.97,1.41,3.97,2.88,0,1.25-.85,2.3-2.56,2.84v.04c1.71.3,3.09,1.41,3.09,3.1,0,1.93-1.73,3.62-5.06,3.62-1.56,0-2.92-.43-3.6-.82l.51-1.26Z"/>
      <path class="st0" d="M342.16,32.7h-.04l-2.41,1.13-.36-1.25,3.03-1.41h1.6v12.08h-1.81v-10.56Z"/>
      <path class="st0" d="M350.11,42.1c.41.04.87,0,1.51-.06,1.09-.13,2.11-.52,2.9-1.17.92-.72,1.58-1.78,1.83-3.22h-.06c-.77.82-1.88,1.3-3.26,1.3-2.5,0-4.1-1.64-4.1-3.7,0-2.29,1.9-4.29,4.74-4.29s4.59,2.01,4.59,5.09c0,2.66-1.02,4.52-2.39,5.67-1.07.91-2.54,1.47-4.03,1.62-.68.09-1.28.11-1.73.09v-1.34ZM350.8,35.15c0,1.51,1.05,2.56,2.67,2.56,1.26,0,2.24-.54,2.73-1.26.11-.15.17-.33.17-.59,0-2.06-.87-3.64-2.84-3.64-1.6,0-2.73,1.23-2.73,2.94Z"/>
      <path class="st0" d="M301.21,53.18c.9-.13,2.07-.24,3.56-.24,1.83,0,3.18.37,4.03,1.04.79.59,1.26,1.51,1.26,2.62s-.38,2.03-1.11,2.68c-.98.91-2.58,1.38-4.39,1.38-.55,0-1.07-.02-1.49-.11v5.02h-1.86v-12.38ZM303.07,59.22c.41.09.92.13,1.54.13,2.24,0,3.6-.95,3.6-2.68s-1.34-2.45-3.39-2.45c-.81,0-1.43.06-1.75.13v4.87Z"/>
      <path class="st0" d="M320.01,59.68h-5.59v4.52h6.23v1.36h-8.08v-12.53h7.77v1.36h-5.91v3.96h5.59v1.34Z"/>
      <path class="st0" d="M327.35,59.93v1.21h-5.27v-1.21h5.27Z"/>
      <path class="st0" d="M329.61,53.2c1.13-.15,2.47-.26,3.95-.26,2.67,0,4.57.54,5.82,1.56,1.28,1.02,2.03,2.47,2.03,4.5s-.73,3.72-2.07,4.87c-1.34,1.17-3.56,1.8-6.36,1.8-1.32,0-2.43-.06-3.37-.15v-12.32ZM331.47,64.27c.47.07,1.15.09,1.88.09,3.97,0,6.12-1.93,6.12-5.32.02-2.96-1.9-4.83-5.82-4.83-.96,0-1.69.07-2.18.17v9.89Z"/>
      <path class="st0" d="M349.47,65.56l-.15-1.13h-.06c-.58.71-1.69,1.34-3.16,1.34-2.09,0-3.16-1.28-3.16-2.58,0-2.17,2.22-3.36,6.21-3.35v-.19c0-.74-.23-2.08-2.35-2.08-.96,0-1.96.26-2.69.67l-.43-1.08c.85-.48,2.09-.8,3.39-.8,3.16,0,3.93,1.88,3.93,3.68v3.36c0,.78.04,1.54.17,2.16h-1.71ZM349.2,60.97c-2.05-.04-4.37.28-4.37,2.03,0,1.06.81,1.56,1.77,1.56,1.34,0,2.2-.74,2.5-1.51.06-.17.11-.35.11-.52v-1.56Z"/>
      <path class="st0" d="M352.87,64.61l4.67-5.3c.45-.48.87-.91,1.34-1.39v-.04h-5.59v-1.32h7.87l-.02,1.02-4.61,5.22c-.43.5-.85.95-1.32,1.41v.04h6.04v1.3h-8.38v-.95Z"/>
      <path class="st0" d="M362,64.61l4.67-5.3c.45-.48.87-.91,1.34-1.39v-.04h-5.59v-1.32h7.87l-.02,1.02-4.61,5.22c-.43.5-.85.95-1.32,1.41v.04h6.04v1.3h-8.38v-.95Z"/>
      <path class="st0" d="M372.31,52.36h1.88v13.2h-1.88v-13.2Z"/>
      <path class="st0" d="M378.39,61.36c.04,2.21,1.66,3.12,3.54,3.12,1.34,0,2.15-.2,2.86-.46l.32,1.17c-.66.26-1.79.56-3.43.56-3.18,0-5.08-1.82-5.08-4.54s1.83-4.85,4.84-4.85c3.37,0,4.27,2.58,4.27,4.24,0,.33-.04.59-.06.76h-7.25ZM383.89,60.19c.02-1.04-.49-2.66-2.6-2.66-1.9,0-2.73,1.52-2.88,2.66h5.48Z"/>
      <path class="st0" d="M308.83,77.15h-5.29l-.53,3.1c.32-.04.62-.07,1.13-.07,1.07,0,2.13.2,2.99.65,1.09.54,1.98,1.58,1.98,3.1,0,2.36-2.15,4.13-5.16,4.13-1.51,0-2.79-.37-3.46-.74l.47-1.25c.58.3,1.71.67,2.97.67,1.77,0,3.28-1,3.28-2.62-.02-1.56-1.22-2.68-3.99-2.68-.79,0-1.41.07-1.92.13l.9-5.8h6.63v1.38Z"/>
      <path class="st0" d="M312.58,86.71c.41.04.87,0,1.51-.06,1.09-.13,2.11-.52,2.9-1.17.92-.72,1.58-1.78,1.83-3.22h-.06c-.77.82-1.88,1.3-3.26,1.3-2.5,0-4.1-1.64-4.1-3.7,0-2.29,1.9-4.29,4.74-4.29s4.59,2.01,4.59,5.09c0,2.66-1.02,4.52-2.39,5.67-1.07.91-2.54,1.47-4.03,1.62-.68.09-1.28.11-1.73.09v-1.34ZM313.27,79.76c0,1.51,1.05,2.56,2.67,2.56,1.26,0,2.24-.54,2.73-1.26.11-.15.17-.33.17-.59,0-2.06-.87-3.64-2.84-3.64-1.6,0-2.73,1.23-2.73,2.94Z"/>
      <path class="st0" d="M328.24,87.86v-3.29h-6.44v-1.08l6.19-7.71h2.03v7.51h1.94v1.28h-1.94v3.29h-1.77ZM328.24,83.29v-4.03c0-.63.02-1.26.06-1.9h-.06c-.43.71-.77,1.23-1.15,1.78l-3.39,4.11v.04h4.54Z"/>
      <path class="st0" d="M300.55,110.16v-1l1.47-1.25c3.54-2.94,5.14-4.5,5.16-6.32,0-1.23-.68-2.36-2.75-2.36-1.26,0-2.3.56-2.94,1.02l-.6-1.15c.96-.71,2.33-1.23,3.92-1.23,2.99,0,4.25,1.78,4.25,3.51,0,2.23-1.86,4.03-4.78,6.49l-1.11.89v.04h6.23v1.36h-8.85Z"/>
      <path class="st0" d="M325.26,107.71c0,.93.02,1.75.08,2.45h-1.66l-.11-1.47h-.04c-.49.72-1.58,1.67-3.41,1.67-1.62,0-3.56-.78-3.56-3.94v-5.26h1.88v4.98c0,1.71.6,2.86,2.3,2.86,1.26,0,2.13-.76,2.47-1.49.11-.24.17-.54.17-.84v-5.52h1.88v6.54Z"/>
      <path class="st0" d="M328.44,97.64h1.86v11.17h6.14v1.36h-8v-12.53Z"/>
    </g>
    <g>
      <path class="st0" d="M445.4,52.57c-.77.38-2.3.77-4.27.77-4.56,0-7.99-2.88-7.99-8.19s3.43-8.5,8.45-8.5c2.02,0,3.29.43,3.84.72l-.5,1.7c-.79-.38-1.92-.67-3.26-.67-3.79,0-6.31,2.42-6.31,6.67,0,3.96,2.28,6.5,6.22,6.5,1.27,0,2.57-.26,3.41-.67l.43,1.66Z"/>
      <path class="st0" d="M448.02,37.14c1.27-.19,2.78-.34,4.44-.34,3,0,5.14.7,6.55,2.02,1.44,1.32,2.28,3.19,2.28,5.81s-.82,4.8-2.33,6.29c-1.51,1.51-4.01,2.33-7.15,2.33-1.49,0-2.74-.07-3.79-.19v-15.91ZM450.11,51.44c.53.1,1.3.12,2.11.12,4.46,0,6.89-2.5,6.89-6.86.02-3.82-2.14-6.24-6.55-6.24-1.08,0-1.9.1-2.45.22v12.77Z"/>
      <path class="st0" d="M467.84,39.47h-.05l-2.71,1.46-.41-1.61,3.41-1.82h1.8v15.6h-2.04v-13.63Z"/>
      <path class="st0" d="M475.38,49.14c0-1.97,1.18-3.36,3.1-4.18l-.02-.07c-1.73-.82-2.47-2.16-2.47-3.5,0-2.47,2.09-4.15,4.82-4.15,3.02,0,4.54,1.9,4.54,3.84,0,1.32-.65,2.74-2.57,3.65v.07c1.94.77,3.14,2.14,3.14,4.03,0,2.71-2.33,4.54-5.3,4.54-3.26,0-5.23-1.94-5.23-4.22ZM483.78,49.04c0-1.9-1.32-2.81-3.43-3.41-1.82.53-2.81,1.73-2.81,3.22-.07,1.58,1.13,2.98,3.12,2.98s3.12-1.18,3.12-2.78ZM477.97,41.24c0,1.56,1.18,2.4,2.98,2.88,1.34-.46,2.38-1.42,2.38-2.83,0-1.25-.74-2.54-2.64-2.54-1.75,0-2.71,1.15-2.71,2.5Z"/>
      <path class="st0" d="M496.79,38.99c-.43-.02-.98,0-1.58.1-3.31.55-5.06,2.98-5.42,5.54h.07c.74-.98,2.04-1.8,3.77-1.8,2.76,0,4.7,1.99,4.7,5.04,0,2.86-1.94,5.5-5.18,5.5s-5.52-2.59-5.52-6.65c0-3.07,1.1-5.5,2.64-7.03,1.3-1.27,3.02-2.06,4.99-2.3.62-.1,1.15-.12,1.54-.12v1.73ZM496.19,47.99c0-2.23-1.27-3.58-3.22-3.58-1.27,0-2.45.79-3.02,1.92-.14.24-.24.55-.24.94.05,2.57,1.22,4.46,3.43,4.46,1.82,0,3.05-1.51,3.05-3.74Z"/>
      <path class="st0" d="M436.72,76.81l-1.68,5.09h-2.16l5.5-16.18h2.52l5.52,16.18h-2.23l-1.73-5.09h-5.74ZM442.02,75.18l-1.58-4.66c-.36-1.06-.6-2.02-.84-2.95h-.05c-.24.96-.5,1.94-.82,2.93l-1.58,4.68h4.87Z"/>
      <path class="st0" d="M448.79,65.91c1.01-.17,2.33-.31,4.01-.31,2.06,0,3.58.48,4.54,1.34.89.77,1.42,1.94,1.42,3.38s-.43,2.62-1.25,3.46c-1.1,1.18-2.9,1.78-4.94,1.78-.62,0-1.2-.02-1.68-.14v6.48h-2.09v-15.99ZM450.88,73.72c.46.12,1.03.17,1.73.17,2.52,0,4.06-1.22,4.06-3.46s-1.51-3.17-3.82-3.17c-.91,0-1.61.07-1.97.17v6.29Z"/>
      <path class="st0" d="M472.86,81.37c-.77.38-2.3.77-4.27.77-4.56,0-7.99-2.88-7.99-8.19s3.43-8.5,8.45-8.5c2.02,0,3.29.43,3.84.72l-.5,1.7c-.79-.38-1.92-.67-3.26-.67-3.79,0-6.31,2.42-6.31,6.67,0,3.96,2.28,6.5,6.22,6.5,1.27,0,2.57-.26,3.41-.67l.43,1.66Z"/>
      <path class="st0" d="M433.36,110.7v-1.3l1.66-1.61c3.98-3.79,5.78-5.81,5.81-8.16,0-1.58-.77-3.05-3.1-3.05-1.42,0-2.59.72-3.31,1.32l-.67-1.49c1.08-.91,2.62-1.58,4.42-1.58,3.36,0,4.78,2.3,4.78,4.54,0,2.88-2.09,5.21-5.38,8.38l-1.25,1.15v.05h7.01v1.75h-9.96Z"/>
      <path class="st0" d="M461.15,107.53c0,1.2.02,2.26.1,3.17h-1.87l-.12-1.9h-.05c-.55.94-1.78,2.16-3.84,2.16-1.82,0-4.01-1.01-4.01-5.09v-6.79h2.11v6.43c0,2.21.67,3.7,2.59,3.7,1.42,0,2.4-.98,2.78-1.92.12-.31.19-.7.19-1.08v-7.13h2.11v8.45Z"/>
      <path class="st0" d="M464.72,94.52h2.09v14.43h6.91v1.75h-9v-16.18Z"/>
    </g>
    <g>
      <path class="st0" d="M582.57,42.63c-.63.31-1.9.62-3.51.62-3.75,0-6.57-2.31-6.57-6.57s2.82-6.82,6.95-6.82c1.66,0,2.71.35,3.16.58l-.41,1.37c-.65-.31-1.58-.54-2.69-.54-3.12,0-5.19,1.94-5.19,5.35,0,3.18,1.88,5.22,5.11,5.22,1.05,0,2.11-.21,2.8-.54l.36,1.33Z"/>
      <path class="st0" d="M584.72,30.25c1.05-.15,2.29-.27,3.65-.27,2.47,0,4.23.56,5.39,1.62,1.18,1.06,1.88,2.56,1.88,4.66s-.67,3.85-1.92,5.04c-1.24,1.21-3.3,1.87-5.88,1.87-1.22,0-2.25-.06-3.12-.15v-12.77ZM586.44,41.73c.43.08,1.07.1,1.74.1,3.67,0,5.67-2,5.67-5.51.02-3.06-1.76-5.01-5.39-5.01-.89,0-1.56.08-2.01.17v10.24Z"/>
      <path class="st0" d="M601.03,32.12h-.04l-2.23,1.17-.34-1.29,2.8-1.46h1.48v12.52h-1.68v-10.94Z"/>
      <path class="st0" d="M608.4,41.86c.38.04.81,0,1.4-.06,1.01-.14,1.95-.54,2.69-1.21.85-.75,1.46-1.85,1.7-3.33h-.06c-.71.85-1.74,1.35-3.02,1.35-2.31,0-3.79-1.69-3.79-3.83,0-2.37,1.76-4.45,4.38-4.45s4.25,2.08,4.25,5.28c0,2.75-.95,4.68-2.21,5.87-.99.94-2.35,1.52-3.73,1.68-.63.1-1.18.12-1.6.1v-1.39ZM609.03,34.66c0,1.56.97,2.66,2.47,2.66,1.17,0,2.07-.56,2.53-1.31.1-.15.16-.35.16-.62,0-2.14-.81-3.77-2.63-3.77-1.48,0-2.53,1.27-2.53,3.04Z"/>
      <path class="st0" d="M625.85,30.54v1.12l-5.59,11.4h-1.8l5.57-11.07v-.04h-6.28v-1.41h8.1Z"/>
      <path class="st0" d="M573.27,53.35c.83-.13,1.92-.25,3.3-.25,1.7,0,2.94.39,3.73,1.08.73.62,1.17,1.56,1.17,2.72s-.36,2.1-1.03,2.77c-.91.94-2.39,1.43-4.07,1.43-.51,0-.99-.02-1.38-.12v5.2h-1.72v-12.82ZM574.99,59.6c.38.1.85.13,1.42.13,2.07,0,3.34-.98,3.34-2.77s-1.24-2.54-3.14-2.54c-.75,0-1.32.06-1.62.13v5.05Z"/>
      <path class="st0" d="M590.67,60.09h-5.17v4.68h5.77v1.41h-7.48v-12.98h7.19v1.41h-5.47v4.1h5.17v1.39Z"/>
      <path class="st0" d="M597.46,60.34v1.25h-4.88v-1.25h4.88Z"/>
      <path class="st0" d="M599.55,53.19h7.17v1.41h-5.45v4.31h5.04v1.39h-5.04v5.87h-1.72v-12.98Z"/>
      <path class="st0" d="M610.53,54.23c.02.58-.41,1.04-1.11,1.04-.61,0-1.05-.46-1.05-1.04s.45-1.06,1.09-1.06,1.07.46,1.07,1.06ZM608.6,66.17v-9.32h1.74v9.32h-1.74Z"/>
      <path class="st0" d="M613.22,59.76c0-1.1-.02-2.04-.08-2.91h1.52l.06,1.83h.08c.43-1.25,1.48-2.04,2.65-2.04.2,0,.34.02.49.06v1.6c-.18-.04-.36-.06-.59-.06-1.22,0-2.09.9-2.33,2.18-.04.23-.08.5-.08.79v4.97h-1.72v-6.41Z"/>
      <path class="st0" d="M620.44,61.82c.04,2.29,1.54,3.24,3.28,3.24,1.24,0,1.99-.21,2.65-.48l.3,1.21c-.61.27-1.66.58-3.18.58-2.94,0-4.7-1.89-4.7-4.7s1.7-5.03,4.48-5.03c3.12,0,3.95,2.68,3.95,4.39,0,.35-.04.62-.06.79h-6.71ZM625.54,60.61c.02-1.08-.45-2.75-2.41-2.75-1.76,0-2.53,1.58-2.67,2.75h5.07Z"/>
      <path class="st0" d="M580.99,76.77v1.12l-5.59,11.4h-1.8l5.57-11.07v-.04h-6.28v-1.41h8.1Z"/>
      <path class="st0" d="M588.16,89.29v-3.41h-5.96v-1.12l5.73-7.99h1.88v7.78h1.8v1.33h-1.8v3.41h-1.64ZM588.16,84.55v-4.18c0-.65.02-1.31.06-1.96h-.06c-.4.73-.71,1.27-1.07,1.85l-3.14,4.26v.04h4.21Z"/>
      <path class="st0" d="M598.29,89.29v-3.41h-5.96v-1.12l5.73-7.99h1.88v7.78h1.8v1.33h-1.8v3.41h-1.64ZM598.29,84.55v-4.18c0-.65.02-1.31.06-1.96h-.06c-.4.73-.71,1.27-1.07,1.85l-3.14,4.26v.04h4.21Z"/>
      <path class="st0" d="M572.66,112.4v-1.04l1.36-1.29c3.28-3.04,4.76-4.66,4.78-6.55,0-1.27-.63-2.45-2.55-2.45-1.16,0-2.13.58-2.72,1.06l-.55-1.19c.89-.73,2.15-1.27,3.63-1.27,2.76,0,3.93,1.85,3.93,3.64,0,2.31-1.72,4.18-4.42,6.72l-1.03.92v.04h5.77v1.41h-8.19Z"/>
      <path class="st0" d="M595.52,109.86c0,.96.02,1.81.08,2.54h-1.54l-.1-1.52h-.04c-.45.75-1.46,1.73-3.16,1.73-1.5,0-3.3-.81-3.3-4.08v-5.45h1.74v5.16c0,1.77.55,2.97,2.13,2.97,1.17,0,1.97-.79,2.29-1.54.1-.25.16-.56.16-.87v-5.72h1.74v6.78Z"/>
      <path class="st0" d="M598.47,99.42h1.72v11.57h5.69v1.41h-7.4v-12.98Z"/>
    </g>
    <g>
      <path class="st0" d="M52.8,319.49c-.77.38-2.3.77-4.27.77-4.56,0-7.99-2.88-7.99-8.19s3.43-8.5,8.45-8.5c2.02,0,3.29.43,3.84.72l-.5,1.7c-.79-.38-1.92-.67-3.26-.67-3.79,0-6.31,2.42-6.31,6.67,0,3.96,2.28,6.5,6.22,6.5,1.27,0,2.57-.26,3.41-.67l.43,1.66Z"/>
      <path class="st0" d="M55.42,304.06c1.27-.19,2.78-.34,4.44-.34,3,0,5.14.7,6.55,2.02,1.44,1.32,2.28,3.19,2.28,5.81s-.82,4.8-2.33,6.29c-1.51,1.51-4.01,2.33-7.15,2.33-1.49,0-2.74-.07-3.79-.19v-15.91ZM57.5,318.36c.53.1,1.3.12,2.11.12,4.46,0,6.89-2.5,6.89-6.86.02-3.82-2.14-6.24-6.55-6.24-1.08,0-1.9.1-2.45.22v12.77Z"/>
      <path class="st0" d="M79.56,305.9c-.43-.02-.98,0-1.58.1-3.31.55-5.06,2.98-5.42,5.54h.07c.74-.98,2.04-1.8,3.77-1.8,2.76,0,4.7,1.99,4.7,5.04,0,2.86-1.94,5.5-5.18,5.5s-5.52-2.59-5.52-6.65c0-3.07,1.1-5.5,2.64-7.03,1.3-1.27,3.02-2.06,4.99-2.3.62-.1,1.15-.12,1.54-.12v1.73ZM78.96,314.9c0-2.23-1.27-3.58-3.22-3.58-1.27,0-2.45.79-3.02,1.92-.14.24-.24.55-.24.94.05,2.57,1.22,4.46,3.43,4.46,1.82,0,3.05-1.51,3.05-3.74Z"/>
      <path class="st0" d="M82.97,320.02v-1.3l1.66-1.61c3.98-3.79,5.78-5.81,5.81-8.16,0-1.58-.77-3.05-3.1-3.05-1.42,0-2.59.72-3.31,1.32l-.67-1.49c1.08-.91,2.62-1.58,4.42-1.58,3.36,0,4.78,2.3,4.78,4.54,0,2.88-2.09,5.21-5.38,8.38l-1.25,1.15v.05h7.01v1.75h-9.96Z"/>
      <path class="st0" d="M96.02,303.84h2.09v14.43h6.91v1.75h-9v-16.18Z"/>
      <path class="st0" d="M41.5,332.85c.91-.19,2.35-.34,3.82-.34,2.09,0,3.43.36,4.44,1.18.84.62,1.34,1.58,1.34,2.86,0,1.56-1.03,2.93-2.74,3.55v.05c1.54.38,3.34,1.66,3.34,4.06,0,1.39-.55,2.45-1.37,3.24-1.13,1.03-2.95,1.51-5.59,1.51-1.44,0-2.54-.1-3.24-.19v-15.91ZM43.58,339.48h1.9c2.21,0,3.5-1.15,3.5-2.71,0-1.9-1.44-2.64-3.55-2.64-.96,0-1.51.07-1.85.14v5.21ZM43.58,347.23c.41.07,1.01.1,1.75.1,2.16,0,4.15-.79,4.15-3.14,0-2.21-1.9-3.12-4.18-3.12h-1.73v6.17Z"/>
      <path class="st0" d="M56.59,332.64v9.58c0,3.62,1.61,5.16,3.77,5.16,2.4,0,3.94-1.58,3.94-5.16v-9.58h2.11v9.43c0,4.97-2.62,7.01-6.12,7.01-3.31,0-5.81-1.9-5.81-6.91v-9.53h2.11Z"/>
      <path class="st0" d="M73.58,348.82l-5.28-16.18h2.26l2.52,7.97c.7,2.18,1.3,4.15,1.73,6.05h.05c.46-1.87,1.13-3.91,1.85-6.02l2.74-7.99h2.23l-5.78,16.18h-2.3Z"/>
      <path class="st0" d="M83.18,346.39c.6.38,1.99.98,3.46.98,2.71,0,3.55-1.73,3.53-3.02-.02-2.18-1.99-3.12-4.03-3.12h-1.18v-1.58h1.18c1.54,0,3.48-.79,3.48-2.64,0-1.25-.79-2.35-2.74-2.35-1.25,0-2.45.55-3.12,1.03l-.55-1.54c.82-.6,2.4-1.2,4.08-1.2,3.07,0,4.46,1.82,4.46,3.72,0,1.61-.96,2.98-2.88,3.67v.05c1.92.38,3.48,1.82,3.48,4.01,0,2.5-1.94,4.68-5.69,4.68-1.75,0-3.29-.55-4.06-1.06l.58-1.63Z"/>
      <path class="st0" d="M96.22,347.33c.46.05.98,0,1.7-.07,1.22-.17,2.38-.67,3.26-1.51,1.03-.94,1.78-2.3,2.06-4.15h-.07c-.86,1.06-2.11,1.68-3.67,1.68-2.81,0-4.61-2.11-4.61-4.78,0-2.95,2.14-5.54,5.33-5.54s5.16,2.59,5.16,6.58c0,3.43-1.15,5.83-2.69,7.32-1.2,1.18-2.86,1.9-4.54,2.09-.77.12-1.44.14-1.94.12v-1.73ZM96.98,338.35c0,1.94,1.18,3.31,3,3.31,1.42,0,2.52-.7,3.07-1.63.12-.19.19-.43.19-.77,0-2.66-.98-4.7-3.19-4.7-1.8,0-3.07,1.58-3.07,3.79Z"/>
      <path class="st0" d="M116.62,334.99h-5.95l-.6,4.01c.36-.05.7-.1,1.27-.1,1.2,0,2.4.26,3.36.84,1.22.7,2.23,2.04,2.23,4.01,0,3.05-2.42,5.33-5.81,5.33-1.7,0-3.14-.48-3.89-.96l.53-1.61c.65.38,1.92.86,3.34.86,1.99,0,3.7-1.3,3.7-3.38-.02-2.02-1.37-3.46-4.49-3.46-.89,0-1.58.1-2.16.17l1.01-7.49h7.46v1.78Z"/>
      <path class="st0" d="M40.75,377.62v-1.3l1.66-1.61c3.98-3.79,5.78-5.81,5.81-8.16,0-1.58-.77-3.05-3.1-3.05-1.42,0-2.59.72-3.31,1.32l-.67-1.49c1.08-.91,2.62-1.58,4.42-1.58,3.36,0,4.78,2.3,4.78,4.54,0,2.88-2.09,5.21-5.38,8.38l-1.25,1.15v.05h7.01v1.75h-9.96Z"/>
      <path class="st0" d="M68.55,374.45c0,1.2.02,2.26.1,3.17h-1.87l-.12-1.9h-.05c-.55.94-1.78,2.16-3.84,2.16-1.82,0-4.01-1.01-4.01-5.09v-6.79h2.11v6.43c0,2.21.67,3.7,2.59,3.7,1.42,0,2.4-.98,2.78-1.92.12-.31.19-.7.19-1.08v-7.13h2.11v8.45Z"/>
      <path class="st0" d="M72.12,361.44h2.09v14.43h6.91v1.75h-9v-16.18Z"/>
    </g>
    <g>
      <path class="st0" d="M184.58,319.49c-.77.38-2.3.77-4.27.77-4.56,0-7.99-2.88-7.99-8.19s3.43-8.5,8.45-8.5c2.02,0,3.29.43,3.84.72l-.5,1.7c-.79-.38-1.92-.67-3.26-.67-3.79,0-6.31,2.42-6.31,6.67,0,3.96,2.28,6.5,6.22,6.5,1.27,0,2.57-.26,3.41-.67l.43,1.66Z"/>
      <path class="st0" d="M187.2,304.06c1.27-.19,2.78-.34,4.44-.34,3,0,5.14.7,6.55,2.02,1.44,1.32,2.28,3.19,2.28,5.81s-.82,4.8-2.33,6.29c-1.51,1.51-4.01,2.33-7.15,2.33-1.49,0-2.74-.07-3.79-.19v-15.91ZM189.29,318.36c.53.1,1.3.12,2.11.12,4.46,0,6.89-2.5,6.89-6.86.02-3.82-2.14-6.24-6.55-6.24-1.08,0-1.9.1-2.45.22v12.77Z"/>
      <path class="st0" d="M208.97,320.02v-4.25h-7.25v-1.39l6.96-9.96h2.28v9.7h2.18v1.66h-2.18v4.25h-1.99ZM208.97,314.11v-5.21c0-.82.02-1.63.07-2.45h-.07c-.48.91-.86,1.58-1.3,2.3l-3.82,5.3v.05h5.11Z"/>
      <path class="st0" d="M173.28,332.85c.91-.19,2.35-.34,3.82-.34,2.09,0,3.43.36,4.44,1.18.84.62,1.34,1.58,1.34,2.86,0,1.56-1.03,2.93-2.74,3.55v.05c1.54.38,3.34,1.66,3.34,4.06,0,1.39-.55,2.45-1.37,3.24-1.13,1.03-2.95,1.51-5.59,1.51-1.44,0-2.54-.1-3.24-.19v-15.91ZM175.37,339.48h1.9c2.21,0,3.5-1.15,3.5-2.71,0-1.9-1.44-2.64-3.55-2.64-.96,0-1.51.07-1.85.14v5.21ZM175.37,347.23c.41.07,1.01.1,1.75.1,2.16,0,4.15-.79,4.15-3.14,0-2.21-1.9-3.12-4.18-3.12h-1.73v6.17Z"/>
      <path class="st0" d="M188.37,332.64v9.58c0,3.62,1.61,5.16,3.77,5.16,2.4,0,3.94-1.58,3.94-5.16v-9.58h2.11v9.43c0,4.97-2.62,7.01-6.12,7.01-3.31,0-5.81-1.9-5.81-6.91v-9.53h2.11Z"/>
      <path class="st0" d="M205.37,348.82l-5.28-16.18h2.26l2.52,7.97c.7,2.18,1.3,4.15,1.73,6.05h.05c.46-1.87,1.13-3.91,1.85-6.02l2.74-7.99h2.23l-5.78,16.18h-2.3Z"/>
      <path class="st0" d="M220.99,348.82v-4.25h-7.25v-1.39l6.96-9.96h2.28v9.7h2.18v1.66h-2.18v4.25h-1.99ZM220.99,342.91v-5.21c0-.82.02-1.63.07-2.45h-.07c-.48.91-.86,1.58-1.3,2.3l-3.82,5.3v.05h5.11Z"/>
      <path class="st0" d="M228,347.33c.46.05.98,0,1.7-.07,1.22-.17,2.38-.67,3.26-1.51,1.03-.94,1.78-2.3,2.06-4.15h-.07c-.86,1.06-2.11,1.68-3.67,1.68-2.81,0-4.61-2.11-4.61-4.78,0-2.95,2.14-5.54,5.33-5.54s5.16,2.59,5.16,6.58c0,3.43-1.15,5.83-2.69,7.32-1.2,1.18-2.86,1.9-4.54,2.09-.77.12-1.44.14-1.94.12v-1.73ZM228.77,338.35c0,1.94,1.18,3.31,3,3.31,1.42,0,2.52-.7,3.07-1.63.12-.19.19-.43.19-.77,0-2.66-.98-4.7-3.19-4.7-1.8,0-3.07,1.58-3.07,3.79Z"/>
      <path class="st0" d="M247.99,334.7c-.43-.02-.98,0-1.58.1-3.31.55-5.06,2.98-5.42,5.54h.07c.74-.98,2.04-1.8,3.77-1.8,2.76,0,4.7,1.99,4.7,5.04,0,2.86-1.94,5.5-5.18,5.5s-5.52-2.59-5.52-6.65c0-3.07,1.1-5.5,2.64-7.03,1.3-1.27,3.02-2.06,4.99-2.3.62-.1,1.15-.12,1.54-.12v1.73ZM247.39,343.7c0-2.23-1.27-3.58-3.22-3.58-1.27,0-2.45.79-3.02,1.92-.14.24-.24.55-.24.94.05,2.57,1.22,4.46,3.43,4.46,1.82,0,3.05-1.51,3.05-3.74Z"/>
      <path class="st0" d="M177.12,363.98h-.05l-2.71,1.46-.41-1.61,3.41-1.82h1.8v15.6h-2.04v-13.63Z"/>
      <path class="st0" d="M200.33,374.45c0,1.2.02,2.26.1,3.17h-1.87l-.12-1.9h-.05c-.55.94-1.78,2.16-3.84,2.16-1.82,0-4.01-1.01-4.01-5.09v-6.79h2.11v6.43c0,2.21.67,3.7,2.59,3.7,1.42,0,2.4-.98,2.78-1.92.12-.31.19-.7.19-1.08v-7.13h2.11v8.45Z"/>
      <path class="st0" d="M203.9,361.44h2.09v14.43h6.91v1.75h-9v-16.18Z"/>
    </g>
    <g>
      <path class="st0" d="M324.04,319.75c-.77.38-2.3.77-4.27.77-4.56,0-7.99-2.88-7.99-8.19s3.43-8.5,8.45-8.5c2.02,0,3.29.43,3.84.72l-.5,1.7c-.79-.38-1.92-.67-3.26-.67-3.79,0-6.31,2.42-6.31,6.67,0,3.96,2.28,6.5,6.22,6.5,1.27,0,2.57-.26,3.41-.67l.43,1.66Z"/>
      <path class="st0" d="M326.66,304.32c1.27-.19,2.78-.34,4.44-.34,3,0,5.14.7,6.55,2.02,1.44,1.32,2.28,3.19,2.28,5.81s-.82,4.8-2.33,6.29c-1.51,1.51-4.01,2.33-7.15,2.33-1.49,0-2.74-.07-3.79-.19v-15.91ZM328.75,318.62c.53.1,1.3.12,2.11.12,4.46,0,6.89-2.5,6.89-6.86.02-3.82-2.14-6.24-6.55-6.24-1.08,0-1.9.1-2.45.22v12.77Z"/>
      <path class="st0" d="M341.71,316.32c0-1.97,1.18-3.36,3.1-4.18l-.02-.07c-1.73-.82-2.47-2.16-2.47-3.5,0-2.47,2.09-4.15,4.82-4.15,3.02,0,4.54,1.9,4.54,3.84,0,1.32-.65,2.74-2.57,3.65v.07c1.94.77,3.14,2.14,3.14,4.03,0,2.71-2.33,4.54-5.3,4.54-3.26,0-5.23-1.94-5.23-4.22ZM350.11,316.22c0-1.9-1.32-2.81-3.43-3.41-1.82.53-2.81,1.73-2.81,3.22-.07,1.58,1.13,2.98,3.12,2.98s3.12-1.18,3.12-2.78ZM344.3,308.42c0,1.56,1.18,2.4,2.98,2.88,1.34-.46,2.38-1.42,2.38-2.83,0-1.25-.74-2.54-2.64-2.54-1.75,0-2.71,1.15-2.71,2.5Z"/>
      <path class="st0" d="M312.74,333.12c.91-.19,2.35-.34,3.82-.34,2.09,0,3.43.36,4.44,1.18.84.62,1.34,1.58,1.34,2.86,0,1.56-1.03,2.93-2.74,3.55v.05c1.54.38,3.34,1.66,3.34,4.06,0,1.39-.55,2.45-1.37,3.24-1.13,1.03-2.95,1.51-5.59,1.51-1.44,0-2.54-.1-3.24-.19v-15.91ZM314.83,339.74h1.9c2.21,0,3.5-1.15,3.5-2.71,0-1.9-1.44-2.64-3.55-2.64-.96,0-1.51.07-1.85.14v5.21ZM314.83,347.5c.41.07,1.01.1,1.75.1,2.16,0,4.15-.79,4.15-3.14,0-2.21-1.9-3.12-4.18-3.12h-1.73v6.17Z"/>
      <path class="st0" d="M329.4,349.08l-5.28-16.18h2.26l2.52,7.97c.7,2.18,1.3,4.15,1.73,6.05h.05c.46-1.87,1.13-3.91,1.85-6.02l2.74-7.99h2.23l-5.78,16.18h-2.3Z"/>
      <path class="st0" d="M347.8,335.26h-5.95l-.6,4.01c.36-.05.7-.1,1.27-.1,1.2,0,2.4.26,3.36.84,1.22.7,2.23,2.04,2.23,4.01,0,3.05-2.42,5.33-5.81,5.33-1.7,0-3.14-.48-3.89-.96l.53-1.61c.65.38,1.92.86,3.34.86,1.99,0,3.7-1.3,3.7-3.38-.02-2.02-1.37-3.46-4.49-3.46-.89,0-1.58.1-2.16.17l1.01-7.49h7.46v1.78Z"/>
      <path class="st0" d="M355.39,335.45h-.05l-2.71,1.46-.41-1.61,3.41-1.82h1.8v15.6h-2.04v-13.63Z"/>
      <path class="st0" d="M373.48,341.11c0,5.3-1.97,8.23-5.42,8.23-3.05,0-5.11-2.86-5.16-8.02,0-5.23,2.26-8.11,5.42-8.11s5.16,2.93,5.16,7.9ZM365.01,341.35c0,4.06,1.25,6.36,3.17,6.36,2.16,0,3.19-2.52,3.19-6.5s-.98-6.36-3.17-6.36c-1.85,0-3.19,2.26-3.19,6.5Z"/>
      <path class="st0" d="M316.58,364.25h-.05l-2.71,1.46-.41-1.61,3.41-1.82h1.8v15.6h-2.04v-13.63Z"/>
      <path class="st0" d="M339.79,374.71c0,1.2.02,2.26.1,3.17h-1.87l-.12-1.9h-.05c-.55.94-1.78,2.16-3.84,2.16-1.82,0-4.01-1.01-4.01-5.09v-6.79h2.11v6.43c0,2.21.67,3.7,2.59,3.7,1.42,0,2.4-.98,2.78-1.92.12-.31.19-.7.19-1.08v-7.13h2.11v8.45Z"/>
      <path class="st0" d="M343.36,361.7h2.09v14.43h6.91v1.75h-9v-16.18Z"/>
    </g>
    <g>
      <path class="st0" d="M437.95,319.49c-.77.38-2.3.77-4.27.77-4.56,0-7.99-2.88-7.99-8.19s3.43-8.5,8.45-8.5c2.02,0,3.29.43,3.84.72l-.5,1.7c-.79-.38-1.92-.67-3.26-.67-3.79,0-6.31,2.42-6.31,6.67,0,3.96,2.28,6.5,6.22,6.5,1.27,0,2.57-.26,3.41-.67l.43,1.66Z"/>
      <path class="st0" d="M440.57,304.06c1.27-.19,2.78-.34,4.44-.34,3,0,5.14.7,6.55,2.02,1.44,1.32,2.28,3.19,2.28,5.81s-.82,4.8-2.33,6.29c-1.51,1.51-4.01,2.33-7.15,2.33-1.49,0-2.74-.07-3.79-.19v-15.91ZM442.66,318.36c.53.1,1.3.12,2.11.12,4.46,0,6.89-2.5,6.89-6.86.02-3.82-2.14-6.24-6.55-6.24-1.08,0-1.9.1-2.45.22v12.77Z"/>
      <path class="st0" d="M462.34,320.02v-4.25h-7.25v-1.39l6.96-9.96h2.28v9.7h2.18v1.66h-2.18v4.25h-1.99ZM462.34,314.11v-5.21c0-.82.02-1.63.07-2.45h-.07c-.48.91-.86,1.58-1.3,2.3l-3.82,5.3v.05h5.11Z"/>
      <path class="st0" d="M477.43,306.19h-5.95l-.6,4.01c.36-.05.7-.1,1.27-.1,1.2,0,2.4.26,3.36.84,1.22.7,2.23,2.04,2.23,4.01,0,3.05-2.42,5.33-5.81,5.33-1.7,0-3.14-.48-3.89-.96l.53-1.61c.65.38,1.92.86,3.34.86,1.99,0,3.7-1.3,3.7-3.38-.02-2.02-1.37-3.46-4.49-3.46-.89,0-1.58.1-2.16.17l1.01-7.49h7.46v1.78Z"/>
      <path class="st0" d="M481.18,304.06c1.06-.22,2.57-.34,4.01-.34,2.23,0,3.67.41,4.68,1.32.82.72,1.27,1.82,1.27,3.07,0,2.14-1.34,3.55-3.05,4.13v.07c1.25.43,1.99,1.58,2.38,3.26.53,2.26.91,3.82,1.25,4.44h-2.16c-.26-.46-.62-1.85-1.08-3.86-.48-2.23-1.34-3.07-3.24-3.14h-1.97v7.01h-2.09v-15.96ZM483.26,311.42h2.14c2.23,0,3.65-1.22,3.65-3.07,0-2.09-1.51-3-3.72-3.02-1.01,0-1.73.1-2.06.19v5.9Z"/>
      <path class="st0" d="M507.99,311.76c0,5.57-3.38,8.52-7.51,8.52s-7.27-3.31-7.27-8.21c0-5.14,3.19-8.5,7.51-8.5s7.27,3.38,7.27,8.18ZM495.43,312.02c0,3.46,1.87,6.55,5.16,6.55s5.18-3.05,5.18-6.72c0-3.22-1.68-6.58-5.16-6.58s-5.18,3.19-5.18,6.74Z"/>
      <path class="st0" d="M426.65,332.85c.91-.19,2.35-.34,3.82-.34,2.09,0,3.43.36,4.44,1.18.84.62,1.34,1.58,1.34,2.86,0,1.56-1.03,2.93-2.74,3.55v.05c1.54.38,3.34,1.66,3.34,4.06,0,1.39-.55,2.45-1.37,3.24-1.13,1.03-2.95,1.51-5.59,1.51-1.44,0-2.54-.1-3.24-.19v-15.91ZM428.74,339.48h1.9c2.21,0,3.5-1.15,3.5-2.71,0-1.9-1.44-2.64-3.55-2.64-.96,0-1.51.07-1.85.14v5.21ZM428.74,347.23c.41.07,1.01.1,1.75.1,2.16,0,4.15-.79,4.15-3.14,0-2.21-1.9-3.12-4.18-3.12h-1.73v6.17Z"/>
      <path class="st0" d="M443.31,348.82l-5.28-16.18h2.26l2.52,7.97c.7,2.18,1.3,4.15,1.73,6.05h.05c.46-1.87,1.13-3.91,1.85-6.02l2.74-7.99h2.23l-5.78,16.18h-2.3Z"/>
      <path class="st0" d="M461.71,334.99h-5.95l-.6,4.01c.36-.05.7-.1,1.27-.1,1.2,0,2.4.26,3.36.84,1.22.7,2.23,2.04,2.23,4.01,0,3.05-2.42,5.33-5.81,5.33-1.7,0-3.14-.48-3.89-.96l.53-1.61c.65.38,1.92.86,3.34.86,1.99,0,3.7-1.3,3.7-3.38-.02-2.02-1.37-3.46-4.49-3.46-.89,0-1.58.1-2.16.17l1.01-7.49h7.46v1.78Z"/>
      <path class="st0" d="M474.84,333.21v1.39l-6.79,14.21h-2.18l6.77-13.8v-.05h-7.63v-1.75h9.84Z"/>
      <path class="st0" d="M487.39,340.85c0,5.3-1.97,8.23-5.42,8.23-3.05,0-5.11-2.86-5.16-8.02,0-5.23,2.26-8.11,5.42-8.11s5.16,2.93,5.16,7.9ZM478.92,341.09c0,4.06,1.25,6.36,3.17,6.36,2.16,0,3.19-2.52,3.19-6.5s-.98-6.36-3.17-6.36c-1.85,0-3.19,2.26-3.19,6.5Z"/>
      <path class="st0" d="M430.49,363.98h-.05l-2.71,1.46-.41-1.61,3.41-1.82h1.8v15.6h-2.04v-13.63Z"/>
      <path class="st0" d="M453.7,374.45c0,1.2.02,2.26.1,3.17h-1.87l-.12-1.9h-.05c-.55.94-1.78,2.16-3.84,2.16-1.82,0-4.01-1.01-4.01-5.09v-6.79h2.11v6.43c0,2.21.67,3.7,2.59,3.7,1.42,0,2.4-.98,2.78-1.92.12-.31.19-.7.19-1.08v-7.13h2.11v8.45Z"/>
      <path class="st0" d="M457.27,361.44h2.09v14.43h6.91v1.75h-9v-16.18Z"/>
    </g>
    <g>
      <path class="st0" d="M574.76,306.74c-.66.31-1.99.61-3.7.61-3.95,0-6.92-2.29-6.92-6.5s2.97-6.75,7.31-6.75c1.74,0,2.85.34,3.32.57l-.44,1.35c-.69-.3-1.66-.53-2.82-.53-3.28,0-5.46,1.93-5.46,5.3,0,3.15,1.97,5.17,5.38,5.17,1.1,0,2.22-.21,2.95-.53l.37,1.32Z"/>
      <path class="st0" d="M577.03,294.47c1.1-.15,2.41-.27,3.84-.27,2.6,0,4.44.55,5.67,1.6,1.25,1.05,1.97,2.54,1.97,4.62s-.71,3.81-2.01,5c-1.31,1.2-3.47,1.85-6.19,1.85-1.29,0-2.37-.06-3.28-.15v-12.65ZM578.84,305.84c.46.08,1.12.1,1.83.1,3.86,0,5.96-1.98,5.96-5.46.02-3.03-1.85-4.96-5.67-4.96-.93,0-1.64.08-2.12.17v10.15Z"/>
      <path class="st0" d="M590.66,305.23c.52.31,1.72.78,2.99.78,2.35,0,3.07-1.37,3.05-2.4-.02-1.74-1.72-2.48-3.49-2.48h-1.02v-1.26h1.02c1.33,0,3.01-.63,3.01-2.1,0-.99-.69-1.87-2.37-1.87-1.08,0-2.12.44-2.7.82l-.48-1.22c.71-.48,2.08-.95,3.53-.95,2.66,0,3.86,1.45,3.86,2.96,0,1.28-.83,2.37-2.49,2.92v.04c1.66.31,3.01,1.45,3.01,3.19,0,1.98-1.68,3.72-4.92,3.72-1.52,0-2.85-.44-3.51-.84l.5-1.3Z"/>
      <path class="st0" d="M564.73,328.03c.81.46,1.99.84,3.24.84,1.85,0,2.93-.9,2.93-2.19,0-1.2-.75-1.89-2.64-2.56-2.28-.74-3.7-1.83-3.7-3.64,0-2,1.81-3.49,4.53-3.49,1.43,0,2.47.31,3.09.63l-.5,1.35c-.46-.23-1.39-.61-2.66-.61-1.91,0-2.64,1.05-2.64,1.93,0,1.2.85,1.79,2.78,2.48,2.37.84,3.57,1.89,3.57,3.78,0,1.98-1.6,3.7-4.9,3.7-1.35,0-2.82-.36-3.57-.82l.46-1.39Z"/>
      <path class="st0" d="M575.16,323.83c0-1.18-.04-2.14-.08-3.01h1.64l.08,1.58h.04c.75-1.13,1.93-1.79,3.57-1.79,2.43,0,4.26,1.89,4.26,4.69,0,3.32-2.2,4.96-4.57,4.96-1.33,0-2.49-.53-3.09-1.45h-.04v5.02h-1.81v-9.99ZM576.97,326.29c0,.25.04.48.08.69.33,1.16,1.43,1.96,2.74,1.96,1.93,0,3.05-1.45,3.05-3.57,0-1.85-1.06-3.43-2.99-3.43-1.25,0-2.41.82-2.76,2.08-.06.21-.12.46-.12.69v1.58Z"/>
      <path class="st0" d="M592.54,330.05l-.15-1.16h-.06c-.56.73-1.64,1.37-3.07,1.37-2.04,0-3.07-1.32-3.07-2.65,0-2.23,2.16-3.45,6.04-3.43v-.19c0-.76-.23-2.14-2.28-2.14-.93,0-1.91.27-2.62.69l-.42-1.11c.83-.5,2.04-.82,3.3-.82,3.07,0,3.82,1.93,3.82,3.78v3.45c0,.8.04,1.58.17,2.21h-1.66ZM592.27,325.34c-1.99-.04-4.26.29-4.26,2.08,0,1.09.79,1.6,1.72,1.6,1.31,0,2.14-.76,2.43-1.54.06-.17.1-.36.1-.53v-1.6Z"/>
      <path class="st0" d="M596.99,323.7c0-1.09-.02-2.02-.08-2.88h1.6l.06,1.81h.08c.46-1.24,1.56-2.02,2.78-2.02.21,0,.35.02.52.06v1.58c-.19-.04-.37-.06-.62-.06-1.29,0-2.2.9-2.45,2.16-.04.23-.08.5-.08.78v4.92h-1.81v-6.35Z"/>
      <path class="st0" d="M605.67,325.06h.04c.25-.32.6-.73.89-1.05l2.95-3.19h2.2l-3.88,3.8,4.42,5.44h-2.22l-3.47-4.43-.93.95v3.47h-1.81v-13.54h1.81v8.54Z"/>
      <path class="st0" d="M613.67,317.37c.79-.15,2.04-.27,3.3-.27,1.81,0,2.97.29,3.84.93.73.5,1.16,1.26,1.16,2.27,0,1.24-.89,2.33-2.37,2.82v.04c1.33.31,2.89,1.32,2.89,3.22,0,1.11-.48,1.95-1.18,2.57-.98.82-2.55,1.2-4.84,1.2-1.25,0-2.2-.08-2.8-.15v-12.65ZM615.48,322.63h1.64c1.91,0,3.03-.92,3.03-2.16,0-1.51-1.25-2.1-3.07-2.1-.83,0-1.31.06-1.6.11v4.14ZM615.48,328.79c.35.06.87.08,1.52.08,1.87,0,3.59-.63,3.59-2.5,0-1.75-1.64-2.48-3.61-2.48h-1.5v4.9Z"/>
      <path class="st0" d="M624.87,316.51h1.83v13.54h-1.83v-13.54Z"/>
      <path class="st0" d="M638.18,327.53c0,.95.02,1.79.08,2.52h-1.62l-.1-1.51h-.04c-.48.74-1.54,1.72-3.32,1.72-1.58,0-3.47-.8-3.47-4.04v-5.4h1.83v5.11c0,1.75.58,2.94,2.24,2.94,1.23,0,2.08-.78,2.41-1.53.1-.25.17-.55.17-.86v-5.66h1.83v6.71Z"/>
      <path class="st0" d="M642.23,325.74c.04,2.27,1.62,3.2,3.45,3.2,1.31,0,2.1-.21,2.78-.48l.31,1.2c-.64.27-1.74.57-3.34.57-3.09,0-4.94-1.87-4.94-4.65s1.79-4.98,4.71-4.98c3.28,0,4.15,2.65,4.15,4.35,0,.34-.04.61-.06.78h-7.06ZM647.59,324.54c.02-1.07-.48-2.73-2.53-2.73-1.85,0-2.66,1.56-2.8,2.73h5.34Z"/>
      <path class="st0" d="M572.4,341.96h-5.15l-.52,3.19c.31-.04.6-.08,1.1-.08,1.04,0,2.08.21,2.91.67,1.06.55,1.93,1.62,1.93,3.19,0,2.42-2.1,4.23-5.03,4.23-1.47,0-2.72-.38-3.36-.76l.46-1.28c.56.31,1.66.69,2.89.69,1.72,0,3.2-1.03,3.2-2.69-.02-1.6-1.18-2.75-3.88-2.75-.77,0-1.37.08-1.87.13l.87-5.95h6.46v1.41Z"/>
      <path class="st0" d="M583.05,341.96h-5.15l-.52,3.19c.31-.04.6-.08,1.1-.08,1.04,0,2.08.21,2.91.67,1.06.55,1.93,1.62,1.93,3.19,0,2.42-2.1,4.23-5.03,4.23-1.47,0-2.72-.38-3.36-.76l.46-1.28c.56.31,1.66.69,2.89.69,1.72,0,3.2-1.03,3.2-2.69-.02-1.6-1.18-2.75-3.88-2.75-.77,0-1.37.08-1.87.13l.87-5.95h6.46v1.41Z"/>
      <path class="st0" d="M594.62,346.62c0,4.22-1.7,6.54-4.69,6.54-2.64,0-4.42-2.27-4.46-6.37,0-4.16,1.95-6.45,4.69-6.45s4.46,2.33,4.46,6.27ZM587.29,346.81c0,3.22,1.08,5.05,2.74,5.05,1.87,0,2.76-2,2.76-5.17s-.85-5.05-2.74-5.05c-1.6,0-2.76,1.79-2.76,5.17Z"/>
      <path class="st0" d="M568.3,365.01h-.04l-2.35,1.16-.35-1.28,2.95-1.45h1.56v12.4h-1.77v-10.83Z"/>
      <path class="st0" d="M588.39,373.33c0,.95.02,1.79.08,2.52h-1.62l-.1-1.51h-.04c-.48.74-1.54,1.72-3.32,1.72-1.58,0-3.47-.8-3.47-4.04v-5.4h1.83v5.11c0,1.75.58,2.94,2.24,2.94,1.23,0,2.08-.78,2.41-1.53.1-.25.17-.55.17-.86v-5.66h1.83v6.71Z"/>
      <path class="st0" d="M591.49,362.99h1.81v11.46h5.98v1.39h-7.79v-12.86Z"/>
    </g>
    <g>
      <path class="st0" d="M704.81,306.53c-.66.31-1.99.61-3.7.61-3.95,0-6.92-2.29-6.92-6.5s2.97-6.75,7.31-6.75c1.74,0,2.85.34,3.32.57l-.44,1.35c-.69-.3-1.66-.53-2.82-.53-3.28,0-5.46,1.93-5.46,5.3,0,3.15,1.97,5.17,5.38,5.17,1.1,0,2.22-.21,2.95-.53l.37,1.32Z"/>
      <path class="st0" d="M707.08,294.26c1.1-.15,2.41-.27,3.84-.27,2.6,0,4.44.55,5.67,1.6,1.25,1.05,1.97,2.54,1.97,4.62s-.71,3.81-2.01,5c-1.31,1.2-3.47,1.85-6.19,1.85-1.29,0-2.37-.06-3.28-.15v-12.65ZM708.88,305.63c.46.08,1.12.1,1.83.1,3.86,0,5.96-1.98,5.96-5.46.02-3.03-1.85-4.96-5.67-4.96-.93,0-1.64.08-2.12.17v10.15Z"/>
      <path class="st0" d="M725.91,306.95v-3.38h-6.27v-1.11l6.02-7.92h1.97v7.71h1.89v1.32h-1.89v3.38h-1.72ZM725.91,302.26v-4.14c0-.65.02-1.3.06-1.95h-.06c-.42.72-.75,1.26-1.12,1.83l-3.3,4.22v.04h4.42Z"/>
      <path class="st0" d="M738.98,295.96h-5.15l-.52,3.19c.31-.04.6-.08,1.1-.08,1.04,0,2.08.21,2.91.67,1.06.55,1.93,1.62,1.93,3.19,0,2.42-2.1,4.23-5.03,4.23-1.47,0-2.72-.38-3.36-.76l.46-1.28c.56.31,1.66.69,2.89.69,1.72,0,3.2-1.03,3.2-2.69-.02-1.6-1.18-2.75-3.88-2.75-.77,0-1.37.08-1.87.13l.87-5.95h6.46v1.41Z"/>
      <path class="st0" d="M742.22,294.26c.91-.17,2.22-.27,3.47-.27,1.93,0,3.18.32,4.05,1.05.71.57,1.1,1.45,1.1,2.44,0,1.7-1.16,2.82-2.64,3.28v.06c1.08.34,1.72,1.26,2.06,2.59.46,1.79.79,3.03,1.08,3.53h-1.87c-.23-.36-.54-1.47-.93-3.07-.42-1.77-1.16-2.44-2.8-2.5h-1.7v5.57h-1.81v-12.68ZM744.03,300.12h1.85c1.93,0,3.16-.97,3.16-2.44,0-1.66-1.31-2.38-3.22-2.4-.87,0-1.5.08-1.79.15v4.69Z"/>
      <path class="st0" d="M755.76,302.9l-1.45,4.04h-1.87l4.76-12.86h2.18l4.78,12.86h-1.93l-1.5-4.04h-4.96ZM760.35,301.61l-1.37-3.7c-.31-.84-.52-1.6-.73-2.35h-.04c-.21.76-.44,1.54-.71,2.33l-1.37,3.72h4.22Z"/>
      <path class="st0" d="M697.29,325.8l-1.45,4.04h-1.87l4.76-12.86h2.18l4.78,12.86h-1.93l-1.5-4.04h-4.96ZM701.88,324.5l-1.37-3.7c-.31-.84-.52-1.6-.73-2.35h-.04c-.21.76-.44,1.54-.71,2.33l-1.37,3.72h4.22Z"/>
      <path class="st0" d="M707.62,316.3h1.83v13.54h-1.83v-13.54Z"/>
      <path class="st0" d="M713.54,325.53c.04,2.27,1.62,3.2,3.45,3.2,1.31,0,2.1-.21,2.78-.48l.31,1.2c-.64.27-1.74.57-3.34.57-3.09,0-4.94-1.87-4.94-4.65s1.79-4.98,4.71-4.98c3.28,0,4.15,2.65,4.15,4.35,0,.34-.04.61-.06.78h-7.06ZM718.89,324.33c.02-1.07-.48-2.73-2.53-2.73-1.85,0-2.66,1.56-2.8,2.73h5.34Z"/>
      <path class="st0" d="M723.71,320.61l1.43,1.98c.37.52.69.99,1.02,1.51h.06c.33-.55.66-1.03,1-1.53l1.41-1.96h1.97l-3.43,4.46,3.53,4.77h-2.08l-1.47-2.08c-.39-.53-.73-1.05-1.08-1.6h-.04c-.33.55-.69,1.05-1.06,1.6l-1.45,2.08h-2.01l3.57-4.71-3.41-4.52h2.04Z"/>
      <path class="st0" d="M738.05,329.84l-.15-1.16h-.06c-.56.73-1.64,1.37-3.07,1.37-2.04,0-3.07-1.32-3.07-2.65,0-2.23,2.16-3.45,6.04-3.43v-.19c0-.76-.23-2.14-2.28-2.14-.93,0-1.91.27-2.62.69l-.42-1.11c.83-.5,2.04-.82,3.3-.82,3.07,0,3.82,1.93,3.82,3.78v3.45c0,.8.04,1.58.17,2.21h-1.66ZM737.78,325.13c-1.99-.04-4.26.29-4.26,2.08,0,1.09.79,1.6,1.72,1.6,1.31,0,2.14-.76,2.43-1.54.06-.17.1-.36.1-.53v-1.6Z"/>
      <path class="st0" d="M742.55,316.99h7.54v1.39h-5.73v4.27h5.3v1.37h-5.3v5.82h-1.81v-12.86Z"/>
      <path class="st0" d="M752.26,316.3h1.83v13.54h-1.83v-13.54Z"/>
      <path class="st0" d="M765.57,327.33c0,.95.02,1.79.08,2.52h-1.62l-.1-1.51h-.04c-.48.74-1.54,1.72-3.32,1.72-1.58,0-3.47-.8-3.47-4.04v-5.4h1.83v5.11c0,1.75.58,2.94,2.24,2.94,1.23,0,2.08-.78,2.41-1.53.1-.25.17-.55.17-.86v-5.66h1.83v6.71Z"/>
      <path class="st0" d="M777.7,325.15c0,3.41-2.57,4.9-5,4.9-2.72,0-4.82-1.83-4.82-4.75,0-3.09,2.2-4.9,4.98-4.9s4.84,1.93,4.84,4.75ZM769.72,325.25c0,2.02,1.27,3.55,3.05,3.55s3.05-1.51,3.05-3.59c0-1.56-.85-3.55-3.01-3.55s-3.09,1.83-3.09,3.59Z"/>
      <path class="st0" d="M780.01,323.49c0-1.09-.02-2.02-.08-2.88h1.6l.06,1.81h.08c.46-1.24,1.56-2.02,2.78-2.02.21,0,.35.02.52.06v1.58c-.19-.04-.37-.06-.62-.06-1.29,0-2.2.9-2.45,2.16-.04.23-.08.5-.08.78v4.92h-1.81v-6.35Z"/>
      <path class="st0" d="M703.15,340.34v1.11l-5.88,11.29h-1.89l5.86-10.97v-.04h-6.6v-1.39h8.51Z"/>
      <path class="st0" d="M714.01,346.41c0,4.22-1.7,6.54-4.69,6.54-2.64,0-4.42-2.27-4.46-6.37,0-4.16,1.95-6.45,4.69-6.45s4.46,2.33,4.46,6.27ZM706.68,346.6c0,3.22,1.08,5.05,2.74,5.05,1.87,0,2.76-2,2.76-5.17s-.85-5.05-2.74-5.05c-1.6,0-2.76,1.79-2.76,5.17Z"/>
      <path class="st0" d="M724.67,346.41c0,4.22-1.7,6.54-4.69,6.54-2.64,0-4.42-2.27-4.46-6.37,0-4.16,1.95-6.45,4.69-6.45s4.46,2.33,4.46,6.27ZM717.34,346.6c0,3.22,1.08,5.05,2.74,5.05,1.87,0,2.76-2,2.76-5.17s-.85-5.05-2.74-5.05c-1.6,0-2.76,1.79-2.76,5.17Z"/>
      <path class="st0" d="M698.35,364.8h-.04l-2.35,1.16-.35-1.28,2.95-1.45h1.56v12.4h-1.77v-10.83Z"/>
      <path class="st0" d="M718.44,373.12c0,.95.02,1.79.08,2.52h-1.62l-.1-1.51h-.04c-.48.74-1.54,1.72-3.32,1.72-1.58,0-3.47-.8-3.47-4.04v-5.4h1.83v5.11c0,1.75.58,2.94,2.24,2.94,1.23,0,2.08-.78,2.41-1.53.1-.25.17-.55.17-.86v-5.66h1.83v6.71Z"/>
      <path class="st0" d="M721.53,362.78h1.81v11.46h5.98v1.39h-7.79v-12.86Z"/>
    </g>
  </g>
</svg>